<svg version="1.1" id="Layer_1" xmlns="http://www.w3.org/2000/svg" xmlns:xlink="http://www.w3.org/1999/xlink" x="0px" y="0px"
	 width="100%" viewBox="0 0 500 500" enable-background="new 0 0 500 500" xml:space="preserve">
<path fill="#FFFFFF" opacity="1.000000" stroke="none" 
	d="
M288.000000,501.000000 
	C192.000015,501.000000 96.500046,501.000000 1.000051,501.000000 
	C1.000034,334.333405 1.000034,167.666794 1.000017,1.000141 
	C167.666565,1.000094 334.333130,1.000094 500.999756,1.000047 
	C500.999847,167.666519 500.999847,334.333038 500.999939,500.999786 
	C430.166656,501.000000 359.333344,501.000000 288.000000,501.000000 
M390.226929,63.256931 
	C340.669403,27.117079 285.267181,12.406371 224.427124,18.997288 
	C165.985962,25.328331 116.331352,50.506554 77.773201,94.487885 
	C17.124214,163.667114 1.838389,243.547424 31.577896,330.198334 
	C54.318729,396.457489 100.753448,442.273529 165.705933,468.474091 
	C212.236176,487.243500 260.370026,489.289520 308.826263,477.303802 
	C355.559509,465.744293 394.991241,441.366425 426.514465,404.965363 
	C476.149994,347.649323 493.482605,280.946716 480.215546,206.825790 
	C469.609894,147.573883 438.533051,100.204750 390.226929,63.256931 
z"/>
<path fill="#FF5858" opacity="1.000000" stroke="none" 
	d="
M390.511108,63.475502 
	C438.533051,100.204750 469.609894,147.573883 480.215546,206.825790 
	C493.482605,280.946716 476.149994,347.649323 426.514465,404.965363 
	C394.991241,441.366425 355.559509,465.744293 308.826263,477.303802 
	C260.370026,489.289520 212.236176,487.243500 165.705933,468.474091 
	C100.753448,442.273529 54.318729,396.457489 31.577896,330.198334 
	C1.838389,243.547424 17.124214,163.667114 77.773201,94.487885 
	C116.331352,50.506554 165.985962,25.328331 224.427124,18.997288 
	C285.267181,12.406371 340.669403,27.117079 390.511108,63.475502 
M292.140808,192.070450 
	C290.286560,193.262711 288.432312,194.454971 285.601776,196.274963 
	C283.727844,185.009216 283.495331,174.970245 285.064117,164.720016 
	C287.728424,164.969147 289.626617,165.146637 292.305603,165.397141 
	C283.949127,160.953552 280.514526,162.449036 279.055634,170.447464 
	C278.757629,172.081406 278.723633,173.782501 278.260040,175.362305 
	C277.706726,177.248001 276.822205,179.036514 276.106781,180.803757 
	C280.202606,181.283463 277.907135,185.288040 278.586792,187.718719 
	C279.625793,191.434616 279.902802,195.586166 284.298920,196.865906 
	C288.373260,198.051987 291.212799,195.497116 294.230499,192.295654 
	C294.868195,191.400528 295.505890,190.505386 296.143585,189.610260 
	C295.837494,189.384995 295.531372,189.159744 295.225250,188.934479 
	C294.413788,189.888428 293.602325,190.842377 292.140808,192.070450 
M226.522385,164.443237 
	C222.240067,164.501694 217.957718,164.558029 213.676239,164.653687 
	C213.639877,164.654510 213.615372,165.185760 213.573410,165.581818 
	C214.939224,165.503296 216.264175,165.427139 216.809555,165.395782 
	C216.809555,172.575333 216.834290,179.350952 216.799072,186.126266 
	C216.781616,189.486435 217.902420,193.427994 211.889893,194.141846 
	C217.370056,194.141846 221.790512,194.141846 226.210968,194.141846 
	C226.193192,193.837570 226.175400,193.533295 226.157623,193.229034 
	C224.589432,192.976883 223.021255,192.724716 221.976654,192.556763 
	C221.976654,183.267975 221.976654,174.378372 221.976654,165.254517 
	C224.149445,165.126129 225.606567,165.040039 227.573639,165.617783 
	C227.152832,168.803970 229.073532,168.218094 230.988571,167.784241 
	C233.158173,167.292679 235.349152,166.895462 238.282516,166.306213 
	C237.582230,169.739090 236.676422,172.277588 236.620895,174.834579 
	C236.492203,180.759903 236.226639,186.773254 237.067612,192.599213 
	C237.715073,197.084503 242.840179,198.563599 245.151749,195.101501 
	C248.026703,190.795624 249.726044,185.704803 251.933090,180.952972 
	C251.466492,180.738892 250.999893,180.524811 250.533295,180.310730 
	C248.173752,185.257416 245.814194,190.204117 243.454651,195.150803 
	C242.630386,194.894821 241.806107,194.638840 240.981842,194.382843 
	C241.645645,185.281097 242.309464,176.179337 242.955322,167.323761 
	C246.491501,167.013550 249.147919,166.780518 251.804352,166.547485 
	C250.932343,165.271271 250.080490,165.076050 249.221954,164.916733 
	C241.813629,163.542099 234.405975,162.607025 226.522385,164.443237 
M101.697235,360.120819 
	C99.199181,388.102295 124.704567,409.146179 150.700012,399.798492 
	C157.646591,397.300568 161.139725,399.071198 165.632065,403.659576 
	C177.865326,416.154297 189.724442,429.206635 203.189240,440.263184 
	C228.620880,461.146240 268.481323,450.876434 282.122192,420.909210 
	C292.023682,399.156982 287.434418,376.854431 269.387115,358.817596 
	C222.471619,311.929352 175.553543,265.043640 128.666611,218.126831 
	C113.796249,203.246994 106.641373,185.288849 108.813721,164.275604 
	C111.431610,138.952606 124.807899,120.613663 147.980286,110.540001 
	C170.399811,100.793633 192.777390,102.828392 212.173874,117.907166 
	C225.250732,128.073090 236.443741,140.669113 248.424774,152.234695 
	C253.920776,157.540115 255.617798,157.593170 261.150757,152.077484 
	C270.002838,143.253067 278.758728,134.330505 287.699341,125.596893 
	C303.924072,109.747757 323.057098,102.553185 345.898102,105.905510 
	C382.532166,111.282211 407.868286,148.899857 399.370300,184.915512 
	C395.203186,202.576508 384.221313,215.350784 371.420166,227.056961 
	C370.364380,228.022476 368.367554,228.288422 366.800110,228.309998 
	C358.302246,228.427094 349.799408,228.246323 341.303680,228.424271 
	C337.990387,228.493668 336.129089,227.233658 334.732849,224.287628 
	C331.098328,216.618988 327.381042,208.978027 323.329224,201.525833 
	C322.130646,199.321396 319.709320,197.781799 317.848297,195.937546 
	C316.122528,197.707123 313.845398,199.191803 312.760071,201.292297 
	C305.503571,215.335938 298.585815,229.554688 291.317810,243.592209 
	C290.318237,245.522751 287.943573,248.036713 286.287537,247.977737 
	C284.534637,247.915329 282.439209,245.367035 281.275116,243.433807 
	C278.965118,239.597565 277.409271,235.306808 275.094055,231.474319 
	C274.125122,229.870392 272.087738,228.133423 270.402618,227.986328 
	C269.048767,227.868149 267.004852,229.768707 266.122406,231.274658 
	C263.772400,235.285217 262.117523,239.707825 259.710388,243.678101 
	C258.564484,245.568161 256.455780,247.774246 254.558075,248.007797 
	C253.180893,248.177246 250.878738,245.627258 249.939835,243.801041 
	C242.482559,229.296097 235.329803,214.634460 227.853851,200.139389 
	C226.945892,198.378952 224.765182,196.411880 223.004028,196.234818 
	C221.658966,196.099625 219.527725,198.369019 218.637955,200.042801 
	C214.421188,207.975204 210.413132,216.023804 206.540100,224.131012 
	C205.047882,227.254562 203.020111,228.535736 199.526779,228.430725 
	C192.367035,228.215515 185.196106,228.339569 178.030090,228.379181 
	C174.463776,228.398880 170.963501,229.067276 170.961945,233.532761 
	C170.960434,237.860596 174.209824,238.867599 177.908890,238.863937 
	C182.908585,238.859009 187.909973,238.947968 192.907700,238.848785 
	C214.589188,238.418533 208.201477,242.183517 218.216858,223.573090 
	C219.258499,221.637512 221.506653,219.143661 223.221359,219.123260 
	C224.879913,219.103546 227.161316,221.641754 228.156219,223.577118 
	C235.611816,238.080246 242.746277,252.748413 250.196320,267.254456 
	C251.040848,268.898834 253.219864,270.855927 254.778442,270.854523 
	C256.334351,270.853119 258.391693,268.866211 259.345215,267.233490 
	C261.857361,262.931915 263.706665,258.243591 266.212463,253.937759 
	C267.085907,252.436859 269.115265,250.707993 270.604431,250.719147 
	C272.096222,250.730316 274.063324,252.491974 274.959839,253.999252 
	C277.250549,257.850525 278.822784,262.133270 281.160034,265.951019 
	C282.409637,267.992218 284.667816,270.786804 286.433075,270.759888 
	C288.235657,270.732513 290.591949,267.976257 291.671967,265.881592 
	C299.069824,251.534012 306.121246,237.007843 313.513519,222.657318 
	C314.342224,221.048538 316.548157,219.345886 318.222717,219.229401 
	C319.570831,219.135651 321.507202,221.114380 322.432892,222.631119 
	C324.506561,226.028748 326.376099,229.607162 327.842133,233.304886 
	C329.599884,237.738388 332.590851,239.148956 337.180878,238.938705 
	C343.666870,238.641617 350.286316,238.103516 356.653290,239.022369 
	C369.716705,240.907623 378.648285,235.674423 387.353119,226.188446 
	C405.253967,206.681168 413.932739,184.798859 410.095215,158.265823 
	C403.084869,109.795219 347.871124,80.478386 303.710327,101.642891 
	C290.897278,107.783669 281.166168,117.447098 271.440796,127.284729 
	C265.957092,132.831772 260.504211,138.409317 254.061996,144.965912 
	C252.533096,142.799225 251.658218,141.099838 250.371964,139.810959 
	C241.779388,131.200867 233.424515,122.316376 224.388962,114.192200 
	C191.289185,84.431084 139.653397,89.773750 113.093048,125.455437 
	C90.391930,155.952560 93.566956,197.040558 121.121895,224.736633 
	C167.668564,271.521759 214.394196,318.128815 261.031097,364.824219 
	C263.030670,366.826324 265.030426,368.854706 266.799286,371.056305 
	C275.818878,382.282471 278.990173,395.012085 275.536438,409.010254 
	C267.861725,440.116180 228.607086,451.438141 205.571014,429.181122 
	C194.067032,418.066254 183.026489,406.472412 171.555283,395.322662 
	C167.946060,391.814606 167.383179,389.146576 170.332336,384.663086 
	C178.665543,371.994537 178.058746,355.168701 169.540115,343.269012 
	C160.346924,330.427032 144.822647,324.551422 129.992569,328.301147 
	C115.003372,332.091156 104.089355,344.105316 101.697235,360.120819 
M314.021820,167.685501 
	C311.825836,165.120636 310.350281,160.106689 305.725708,164.006378 
	C299.754089,169.041977 297.531647,185.179871 301.995270,191.614929 
	C303.384979,193.618439 306.563995,195.459991 308.882507,195.411179 
	C310.869110,195.369339 313.481903,192.885422 314.579987,190.822632 
	C316.011566,188.133377 316.221619,184.793854 316.995056,181.577148 
	C318.522949,181.278442 320.052795,180.979370 323.031311,180.397079 
	C320.141724,179.999008 318.719147,179.803040 317.418030,179.623795 
	C316.348755,175.676407 315.357147,172.015640 314.021820,167.685501 
M257.710663,192.828934 
	C258.479797,194.184235 259.248962,195.539520 260.018127,196.894806 
	C260.622559,195.411148 261.268005,193.942139 261.805847,192.434708 
	C261.962097,191.996719 261.859955,191.441940 261.791962,190.952423 
	C261.291656,187.351486 261.911438,185.020554 266.132019,183.621246 
	C271.690643,181.778290 274.767944,175.686066 273.958832,170.551300 
	C273.259979,166.116180 269.296539,164.196259 265.484924,166.511902 
	C264.386719,167.179077 263.441925,168.098770 262.204498,169.078720 
	C261.711853,167.075638 261.299530,165.399063 260.887177,163.722473 
	C260.424377,163.535767 259.961578,163.349060 259.498779,163.162354 
	C258.736053,164.552689 257.437927,165.896500 257.312347,167.342163 
	C256.954437,171.462128 257.208252,175.632614 256.930298,179.763626 
	C256.837524,181.142181 255.865128,182.461533 255.749557,182.734421 
	C256.455841,186.290833 257.021088,189.137009 257.710663,192.828934 
M199.547836,195.522430 
	C200.031158,192.141434 200.607651,188.770172 200.961563,185.375687 
	C201.162155,183.451767 200.997772,181.489807 200.997772,179.658997 
	C202.802490,179.215149 204.078232,178.901382 206.244705,178.368561 
	C203.903564,177.949509 202.515808,177.701111 200.598557,177.357941 
	C201.093903,174.132462 200.627945,170.422638 202.264420,168.555954 
	C203.679031,166.942322 207.482391,167.422882 210.815781,166.882751 
	C200.933380,163.187561 198.063599,164.754593 196.352020,173.920853 
	C196.035797,175.614471 194.983734,177.170715 194.434723,178.418808 
	C194.946030,179.677429 195.839935,181.003555 195.980652,182.405289 
	C196.278503,185.372635 195.925461,188.417282 196.356628,191.354294 
	C196.576630,192.853073 197.914490,194.187759 199.547836,195.522430 
z"/>
<path fill="#FFFBFB" opacity="1.000000" stroke="none" 
	d="
M101.771103,359.703430 
	C104.089355,344.105316 115.003372,332.091156 129.992569,328.301147 
	C144.822647,324.551422 160.346924,330.427032 169.540115,343.269012 
	C178.058746,355.168701 178.665543,371.994537 170.332336,384.663086 
	C167.383179,389.146576 167.946060,391.814606 171.555283,395.322662 
	C183.026489,406.472412 194.067032,418.066254 205.571014,429.181122 
	C228.607086,451.438141 267.861725,440.116180 275.536438,409.010254 
	C278.990173,395.012085 275.818878,382.282471 266.799286,371.056305 
	C265.030426,368.854706 263.030670,366.826324 261.031097,364.824219 
	C214.394196,318.128815 167.668564,271.521759 121.121895,224.736633 
	C93.566956,197.040558 90.391930,155.952560 113.093048,125.455437 
	C139.653397,89.773750 191.289185,84.431084 224.388962,114.192200 
	C233.424515,122.316376 241.779388,131.200867 250.371964,139.810959 
	C251.658218,141.099838 252.533096,142.799225 254.061996,144.965912 
	C260.504211,138.409317 265.957092,132.831772 271.440796,127.284729 
	C281.166168,117.447098 290.897278,107.783669 303.710327,101.642891 
	C347.871124,80.478386 403.084869,109.795219 410.095215,158.265823 
	C413.932739,184.798859 405.253967,206.681168 387.353119,226.188446 
	C378.648285,235.674423 369.716705,240.907623 356.653290,239.022369 
	C350.286316,238.103516 343.666870,238.641617 337.180878,238.938705 
	C332.590851,239.148956 329.599884,237.738388 327.842133,233.304886 
	C326.376099,229.607162 324.506561,226.028748 322.432892,222.631119 
	C321.507202,221.114380 319.570831,219.135651 318.222717,219.229401 
	C316.548157,219.345886 314.342224,221.048538 313.513519,222.657318 
	C306.121246,237.007843 299.069824,251.534012 291.671967,265.881592 
	C290.591949,267.976257 288.235657,270.732513 286.433075,270.759888 
	C284.667816,270.786804 282.409637,267.992218 281.160034,265.951019 
	C278.822784,262.133270 277.250549,257.850525 274.959839,253.999252 
	C274.063324,252.491974 272.096222,250.730316 270.604431,250.719147 
	C269.115265,250.707993 267.085907,252.436859 266.212463,253.937759 
	C263.706665,258.243591 261.857361,262.931915 259.345215,267.233490 
	C258.391693,268.866211 256.334351,270.853119 254.778442,270.854523 
	C253.219864,270.855927 251.040848,268.898834 250.196320,267.254456 
	C242.746277,252.748413 235.611816,238.080246 228.156219,223.577118 
	C227.161316,221.641754 224.879913,219.103546 223.221359,219.123260 
	C221.506653,219.143661 219.258499,221.637512 218.216858,223.573090 
	C208.201477,242.183517 214.589188,238.418533 192.907700,238.848785 
	C187.909973,238.947968 182.908585,238.859009 177.908890,238.863937 
	C174.209824,238.867599 170.960434,237.860596 170.961945,233.532761 
	C170.963501,229.067276 174.463776,228.398880 178.030090,228.379181 
	C185.196106,228.339569 192.367035,228.215515 199.526779,228.430725 
	C203.020111,228.535736 205.047882,227.254562 206.540100,224.131012 
	C210.413132,216.023804 214.421188,207.975204 218.637955,200.042801 
	C219.527725,198.369019 221.658966,196.099625 223.004028,196.234818 
	C224.765182,196.411880 226.945892,198.378952 227.853851,200.139389 
	C235.329803,214.634460 242.482559,229.296097 249.939835,243.801041 
	C250.878738,245.627258 253.180893,248.177246 254.558075,248.007797 
	C256.455780,247.774246 258.564484,245.568161 259.710388,243.678101 
	C262.117523,239.707825 263.772400,235.285217 266.122406,231.274658 
	C267.004852,229.768707 269.048767,227.868149 270.402618,227.986328 
	C272.087738,228.133423 274.125122,229.870392 275.094055,231.474319 
	C277.409271,235.306808 278.965118,239.597565 281.275116,243.433807 
	C282.439209,245.367035 284.534637,247.915329 286.287537,247.977737 
	C287.943573,248.036713 290.318237,245.522751 291.317810,243.592209 
	C298.585815,229.554688 305.503571,215.335938 312.760071,201.292297 
	C313.845398,199.191803 316.122528,197.707123 317.848297,195.937546 
	C319.709320,197.781799 322.130646,199.321396 323.329224,201.525833 
	C327.381042,208.978027 331.098328,216.618988 334.732849,224.287628 
	C336.129089,227.233658 337.990387,228.493668 341.303680,228.424271 
	C349.799408,228.246323 358.302246,228.427094 366.800110,228.309998 
	C368.367554,228.288422 370.364380,228.022476 371.420166,227.056961 
	C384.221313,215.350784 395.203186,202.576508 399.370300,184.915512 
	C407.868286,148.899857 382.532166,111.282211 345.898102,105.905510 
	C323.057098,102.553185 303.924072,109.747757 287.699341,125.596893 
	C278.758728,134.330505 270.002838,143.253067 261.150757,152.077484 
	C255.617798,157.593170 253.920776,157.540115 248.424774,152.234695 
	C236.443741,140.669113 225.250732,128.073090 212.173874,117.907166 
	C192.777390,102.828392 170.399811,100.793633 147.980286,110.540001 
	C124.807899,120.613663 111.431610,138.952606 108.813721,164.275604 
	C106.641373,185.288849 113.796249,203.246994 128.666611,218.126831 
	C175.553543,265.043640 222.471619,311.929352 269.387115,358.817596 
	C287.434418,376.854431 292.023682,399.156982 282.122192,420.909210 
	C268.481323,450.876434 228.620880,461.146240 203.189240,440.263184 
	C189.724442,429.206635 177.865326,416.154297 165.632065,403.659576 
	C161.139725,399.071198 157.646591,397.300568 150.700012,399.798492 
	C124.704567,409.146179 99.199181,388.102295 101.771103,359.703430 
M112.351242,370.684509 
	C112.824257,372.103668 113.236633,373.546478 113.779663,374.938324 
	C119.173935,388.764679 134.846954,395.465973 148.851089,389.952606 
	C162.930664,384.409546 169.670807,368.630615 164.006760,354.472534 
	C158.605804,340.972107 142.786758,334.098328 129.259186,339.373871 
	C116.776573,344.241882 110.947922,354.624817 112.351242,370.684509 
z"/>
<path fill="#FFF5F5" opacity="1.000000" stroke="none" 
	d="
M314.193665,168.020187 
	C315.357147,172.015640 316.348755,175.676407 317.418030,179.623795 
	C318.719147,179.803040 320.141724,179.999008 323.031311,180.397079 
	C320.052795,180.979370 318.522949,181.278442 316.995056,181.577148 
	C316.221619,184.793854 316.011566,188.133377 314.579987,190.822632 
	C313.481903,192.885422 310.869110,195.369339 308.882507,195.411179 
	C306.563995,195.459991 303.384979,193.618439 301.995270,191.614929 
	C297.531647,185.179871 299.754089,169.041977 305.725708,164.006378 
	C310.350281,160.106689 311.825836,165.120636 314.193665,168.020187 
M312.687042,179.156784 
	C310.862030,177.541000 309.037018,175.925201 306.349579,173.545837 
	C306.096130,180.790070 304.645355,187.200104 307.977356,193.530304 
	C312.824249,190.585739 314.636505,185.453827 312.687042,179.156784 
M310.073914,165.724319 
	C309.459106,166.723450 308.097992,168.020767 308.357605,168.670486 
	C309.531036,171.607239 311.162811,174.360840 312.629517,177.180420 
	C313.306213,176.873260 313.982910,176.566101 314.659607,176.258942 
	C313.313721,172.899536 311.967865,169.540131 310.073914,165.724319 
z"/>
<path fill="#FFF3F3" opacity="1.000000" stroke="none" 
	d="
M227.013275,165.011124 
	C234.405975,162.607025 241.813629,163.542099 249.221954,164.916733 
	C250.080490,165.076050 250.932343,165.271271 251.804352,166.547485 
	C249.147919,166.780518 246.491501,167.013550 242.955322,167.323761 
	C242.309464,176.179337 241.645645,185.281097 240.981842,194.382843 
	C241.806107,194.638840 242.630386,194.894821 243.454651,195.150803 
	C245.814194,190.204117 248.173752,185.257416 250.533295,180.310730 
	C250.999893,180.524811 251.466492,180.738892 251.933090,180.952972 
	C249.726044,185.704803 248.026703,190.795624 245.151749,195.101501 
	C242.840179,198.563599 237.715073,197.084503 237.067612,192.599213 
	C236.226639,186.773254 236.492203,180.759903 236.620895,174.834579 
	C236.676422,172.277588 237.582230,169.739090 238.282516,166.306213 
	C235.349152,166.895462 233.158173,167.292679 230.988571,167.784241 
	C229.073532,168.218094 227.152832,168.803970 227.304413,165.299377 
	C227.035172,164.980988 227.013275,165.011124 227.013275,165.011124 
z"/>
<path fill="#FFF1F1" opacity="1.000000" stroke="none" 
	d="
M257.648499,192.406067 
	C257.021088,189.137009 256.455841,186.290833 255.749557,182.734421 
	C255.865128,182.461533 256.837524,181.142181 256.930298,179.763626 
	C257.208252,175.632614 256.954437,171.462128 257.312347,167.342163 
	C257.437927,165.896500 258.736053,164.552689 259.498779,163.162354 
	C259.961578,163.349060 260.424377,163.535767 260.887177,163.722473 
	C261.299530,165.399063 261.711853,167.075638 262.204498,169.078720 
	C263.441925,168.098770 264.386719,167.179077 265.484924,166.511902 
	C269.296539,164.196259 273.259979,166.116180 273.958832,170.551300 
	C274.767944,175.686066 271.690643,181.778290 266.132019,183.621246 
	C261.911438,185.020554 261.291656,187.351486 261.791962,190.952423 
	C261.859955,191.441940 261.962097,191.996719 261.805847,192.434708 
	C261.268005,193.942139 260.622559,195.411148 260.018127,196.894806 
	C259.248962,195.539520 258.479797,194.184235 257.648499,192.406067 
M262.228668,175.269501 
	C262.038818,177.801407 261.848999,180.333298 261.634735,183.190796 
	C266.619659,182.863983 268.915253,180.042679 269.510742,176.618713 
	C269.989166,173.867783 268.784210,170.824066 268.326233,167.910263 
	C266.526123,169.800385 264.716980,171.682098 262.937897,173.591797 
	C262.727692,173.817413 262.682251,174.196518 262.228668,175.269501 
z"/>
<path fill="#FFF6F6" opacity="1.000000" stroke="none" 
	d="
M293.703369,192.635361 
	C291.212799,195.497116 288.373260,198.051987 284.298920,196.865906 
	C279.902802,195.586166 279.625793,191.434616 278.586792,187.718719 
	C277.907135,185.288040 280.202606,181.283463 276.106781,180.803757 
	C276.822205,179.036514 277.706726,177.248001 278.260040,175.362305 
	C278.723633,173.782501 278.757629,172.081406 279.055634,170.447464 
	C280.514526,162.449036 283.949127,160.953552 292.305603,165.397141 
	C289.626617,165.146637 287.728424,164.969147 285.064117,164.720016 
	C283.495331,174.970245 283.727844,185.009216 285.601776,196.274963 
	C288.432312,194.454971 290.286560,193.262711 292.683044,192.155029 
	C293.384644,192.371521 293.544006,192.503448 293.703369,192.635361 
z"/>
<path fill="#FFF4F4" opacity="1.000000" stroke="none" 
	d="
M227.049423,164.967468 
	C225.606567,165.040039 224.149445,165.126129 221.976654,165.254517 
	C221.976654,174.378372 221.976654,183.267975 221.976654,192.556763 
	C223.021255,192.724716 224.589432,192.976883 226.157623,193.229034 
	C226.175400,193.533295 226.193192,193.837570 226.210968,194.141846 
	C221.790512,194.141846 217.370056,194.141846 211.889893,194.141846 
	C217.902420,193.427994 216.781616,189.486435 216.799072,186.126266 
	C216.834290,179.350952 216.809555,172.575333 216.809555,165.395782 
	C216.264175,165.427139 214.939224,165.503296 213.573410,165.581818 
	C213.615372,165.185760 213.639877,164.654510 213.676239,164.653687 
	C217.957718,164.558029 222.240067,164.501694 226.767822,164.727173 
	C227.013275,165.011124 227.035172,164.980988 227.049423,164.967468 
z"/>
<path fill="#FFF4F4" opacity="1.000000" stroke="none" 
	d="
M199.147461,195.559509 
	C197.914490,194.187759 196.576630,192.853073 196.356628,191.354294 
	C195.925461,188.417282 196.278503,185.372635 195.980652,182.405289 
	C195.839935,181.003555 194.946030,179.677429 194.434723,178.418808 
	C194.983734,177.170715 196.035797,175.614471 196.352020,173.920853 
	C198.063599,164.754593 200.933380,163.187561 210.815781,166.882751 
	C207.482391,167.422882 203.679031,166.942322 202.264420,168.555954 
	C200.627945,170.422638 201.093903,174.132462 200.598557,177.357941 
	C202.515808,177.701111 203.903564,177.949509 206.244705,178.368561 
	C204.078232,178.901382 202.802490,179.215149 200.997772,179.658997 
	C200.997772,181.489807 201.162155,183.451767 200.961563,185.375687 
	C200.607651,188.770172 200.031158,192.141434 199.147461,195.559509 
z"/>
<path fill="#FFF6F6" opacity="1.000000" stroke="none" 
	d="
M293.008057,192.017975 
	C293.602325,190.842377 294.413788,189.888428 295.225250,188.934479 
	C295.531372,189.159744 295.837494,189.384995 296.143585,189.610260 
	C295.505890,190.505386 294.868195,191.400528 293.966919,192.465515 
	C293.544006,192.503448 293.384644,192.371521 293.008057,192.017975 
z"/>
<path fill="#FF5858" opacity="1.000000" stroke="none" 
	d="
M112.253799,370.262238 
	C110.947922,354.624817 116.776573,344.241882 129.259186,339.373871 
	C142.786758,334.098328 158.605804,340.972107 164.006760,354.472534 
	C169.670807,368.630615 162.930664,384.409546 148.851089,389.952606 
	C134.846954,395.465973 119.173935,388.764679 113.779663,374.938324 
	C113.236633,373.546478 112.824257,372.103668 112.253799,370.262238 
z"/>
<path fill="#FF5E5E" opacity="1.000000" stroke="none" 
	d="
M312.966003,179.418640 
	C314.636505,185.453827 312.824249,190.585739 307.977356,193.530304 
	C304.645355,187.200104 306.096130,180.790070 306.349579,173.545837 
	C309.037018,175.925201 310.862030,177.541000 312.966003,179.418640 
z"/>
<path fill="#FF6767" opacity="1.000000" stroke="none" 
	d="
M310.347961,165.952530 
	C311.967865,169.540131 313.313721,172.899536 314.659607,176.258942 
	C313.982910,176.566101 313.306213,176.873260 312.629517,177.180420 
	C311.162811,174.360840 309.531036,171.607239 308.357605,168.670486 
	C308.097992,168.020767 309.459106,166.723450 310.347961,165.952530 
z"/>
<path fill="#FF6161" opacity="1.000000" stroke="none" 
	d="
M262.394531,174.886978 
	C262.682251,174.196518 262.727692,173.817413 262.937897,173.591797 
	C264.716980,171.682098 266.526123,169.800385 268.326233,167.910278 
	C268.784210,170.824066 269.989166,173.867783 269.510742,176.618713 
	C268.915253,180.042679 266.619659,182.863983 261.634735,183.190796 
	C261.848999,180.333298 262.038818,177.801407 262.394531,174.886978 
z"/>
</svg>