<svg version="1.1" id="Layer_1" xmlns="http://www.w3.org/2000/svg" xmlns:xlink="http://www.w3.org/1999/xlink" x="0px" y="0px"
	 width="100%" viewBox="0 0 1125 498" enable-background="new 0 0 1125 498" xml:space="preserve">
<path fill="#000000" opacity="1.000000" stroke="none" 
	d="
M692.000000,499.000000 
	C461.333374,499.000000 231.166748,499.000000 1.000093,499.000000 
	C1.000062,333.000061 1.000062,167.000137 1.000031,1.000160 
	C375.999878,1.000106 750.999756,1.000106 1125.999756,1.000053 
	C1125.999756,166.999832 1125.999756,332.999664 1125.999878,498.999756 
	C981.500000,499.000000 837.000000,499.000000 692.000000,499.000000 
M639.996216,322.015900 
	C639.996216,322.015900 640.001648,322.082214 640.596130,321.993347 
	C640.763794,321.650543 640.931458,321.307770 640.992126,320.973877 
	C640.992126,320.973877 641.000000,321.080902 641.727295,321.058716 
	C645.845825,317.377228 649.964355,313.695740 654.012695,310.012085 
	C654.012695,310.012085 654.013306,310.082336 654.699036,309.907135 
	C658.459717,305.621338 662.220398,301.335541 666.337280,296.478088 
	C669.309998,292.718231 672.528381,289.124512 675.205383,285.164764 
	C681.215210,276.274963 687.515259,267.468781 689.765015,256.245728 
	C690.541504,255.333130 691.906189,254.478134 692.002136,253.498886 
	C692.837158,244.971634 693.767456,236.428833 693.944824,227.875626 
	C694.006592,224.896133 692.041443,221.874619 690.987244,218.125565 
	C686.615723,203.966568 678.902771,192.513290 664.877075,185.230804 
	C658.919067,184.795135 652.964966,184.258408 646.999023,184.025406 
	C646.028992,183.987518 645.006470,185.294418 643.447144,186.430206 
	C640.625732,187.851059 637.804321,189.271927 635.656433,190.982925 
	C635.099121,191.329666 634.541870,191.676422 634.051575,192.016357 
	C634.051575,192.016357 634.058777,191.949417 633.384399,192.082535 
	C632.893372,192.386353 632.402405,192.690170 632.007874,193.007095 
	C632.007874,193.007095 632.021484,192.910645 631.250183,192.930023 
	C630.803040,193.631577 630.355835,194.333115 630.040466,195.025589 
	C630.040466,195.025589 630.043213,194.893509 629.447266,195.012909 
	C629.263489,195.354202 629.079712,195.695496 629.012878,196.024155 
	C629.012878,196.024155 629.001282,195.907074 628.335205,196.094681 
	C625.526001,200.073746 622.716736,204.052795 620.022888,208.018661 
	C620.022888,208.018661 620.010986,207.903091 619.337952,208.097855 
	C618.959229,209.650970 618.580505,211.204102 617.928223,213.057449 
	C617.928223,213.057449 617.705627,213.397171 618.198486,213.637695 
	C617.947632,213.986725 617.696838,214.335739 616.841797,215.135406 
	C615.895935,216.691589 614.703552,218.150360 614.044067,219.819672 
	C609.531372,231.242065 605.049622,242.678421 600.750122,254.182144 
	C599.671814,257.067230 599.295044,260.214478 598.635681,263.341522 
	C598.635681,263.341522 598.457336,263.257019 597.954468,263.819916 
	C597.798340,264.017242 597.642212,264.214569 596.826172,263.935486 
	C596.401245,256.546570 595.976318,249.157623 595.747742,240.797394 
	C595.833496,237.909195 595.919189,235.020996 596.760620,231.748718 
	C597.141052,221.390503 598.077515,211.010910 597.680481,200.682587 
	C597.463684,195.045700 597.748352,188.485443 591.712158,184.133347 
	C591.269165,183.771347 590.826172,183.409348 589.830688,182.874832 
	C589.319824,182.626175 588.809021,182.377518 587.824280,181.770081 
	C587.541016,181.493454 587.257812,181.216843 586.690002,180.264740 
	C580.986267,174.448685 573.810242,177.639221 567.247375,177.231964 
	C566.649719,177.194885 565.940796,178.950012 564.506836,179.927322 
	C562.385864,181.938568 559.254089,183.585419 558.368530,186.041992 
	C556.840515,190.280838 556.708679,195.022980 555.345337,200.095688 
	C554.299438,208.720062 553.253540,217.344437 552.074280,226.645203 
	C552.092957,227.104401 552.111633,227.563599 551.933777,228.840286 
	C551.674622,231.552399 551.415466,234.264526 550.944763,237.883774 
	C550.278381,254.518402 549.612000,271.153046 548.173767,288.248901 
	C548.084290,305.401672 547.964844,322.554504 547.996643,339.707031 
	C547.998230,340.539734 549.328430,341.369965 550.161072,342.908783 
	C550.218750,343.140961 550.276489,343.373138 550.218445,343.496155 
	C550.218445,343.496155 550.327454,343.380310 550.174622,344.486877 
	C550.250305,345.968781 550.326050,347.450653 550.673157,349.657471 
	C546.756958,362.510284 550.828064,375.254761 551.074463,388.900818 
	C551.717285,394.233643 551.974060,399.650330 553.109131,404.876221 
	C554.296997,410.345215 556.328857,415.630859 558.421448,421.540955 
	C561.186157,427.204224 563.619507,433.060760 566.786316,438.489441 
	C572.862915,448.906067 580.067566,457.895599 594.566589,455.718994 
	C598.615173,455.840637 602.930969,452.279694 603.048645,448.192169 
	C603.443665,434.474518 603.628479,420.750763 603.914856,406.110687 
	C604.149292,396.295959 604.383728,386.481201 604.797974,375.700378 
	C605.865601,364.806061 606.933228,353.911774 608.607666,342.520203 
	C609.986633,335.962463 611.365601,329.404724 612.529114,323.871582 
	C618.805176,324.501984 625.411438,325.165558 632.598389,325.876282 
	C633.058716,325.525452 633.518982,325.174622 634.726135,324.900604 
	C636.005127,324.279205 637.284119,323.657806 638.490112,323.000671 
	C638.490112,323.000671 638.454102,323.073547 639.221741,323.100006 
	C639.502014,322.740356 639.782288,322.380676 639.996216,322.015900 
M886.425781,208.996964 
	C886.255005,209.340027 886.084167,209.683090 886.008667,210.013733 
	C886.008667,210.013733 885.996887,209.918381 885.305298,210.076340 
	C884.265503,212.350037 883.225708,214.623734 881.602844,217.325211 
	C878.065796,227.757935 874.528748,238.190659 870.297241,249.080734 
	C869.812012,250.232101 869.007385,251.352798 868.893311,252.539795 
	C868.157043,260.207794 867.505249,267.885620 866.964783,275.570007 
	C866.701233,279.316528 866.918152,283.100281 866.584595,286.837463 
	C866.283020,290.216461 865.082703,293.553925 865.073975,296.911774 
	C865.059387,302.506683 865.381897,308.143738 866.133484,313.685608 
	C866.678223,317.702911 868.146179,321.595001 869.215515,326.385223 
	C870.670349,337.669800 875.011902,347.884399 881.910095,356.757019 
	C888.202332,364.850281 896.003784,371.239441 906.731506,372.683014 
	C906.731506,372.683014 906.720642,372.623810 907.077515,373.137146 
	C907.616394,373.427277 908.155334,373.717407 909.154907,374.654236 
	C918.633728,378.814484 928.695129,378.552429 938.638550,377.930969 
	C942.231445,377.706421 945.690918,375.347260 949.812439,373.683472 
	C952.537781,371.801880 955.263062,369.920288 958.756836,368.085175 
	C961.844604,364.890839 965.472107,362.048248 967.854065,358.393860 
	C969.858887,355.318085 970.415222,351.298126 971.873413,346.884003 
	C974.243408,337.280701 976.613403,327.677429 979.753174,317.800476 
	C980.412415,313.187012 981.071655,308.573547 981.823303,303.069702 
	C982.161682,298.388031 982.500061,293.706390 982.997375,288.193298 
	C982.946594,286.787598 982.895752,285.381866 982.964355,283.093842 
	C981.637024,270.773468 980.614441,258.409454 978.859375,246.150299 
	C977.923035,239.609985 975.721497,233.250793 973.873230,226.358047 
	C973.582581,226.208298 973.291870,226.058533 973.002930,225.013687 
	C972.460754,223.327255 971.918518,221.640839 971.317810,219.212112 
	C972.000549,218.480865 972.572998,217.294388 973.385193,217.097549 
	C976.794006,216.271454 980.435852,216.179398 983.685120,214.983795 
	C987.141602,213.711990 989.906860,211.192734 989.061890,206.835922 
	C988.433411,203.595779 986.511963,201.666107 983.006592,202.041306 
	C983.006592,202.041306 983.132446,202.044876 982.586487,201.722870 
	C981.764160,201.555679 980.941895,201.388474 979.707397,200.730179 
	C978.808533,200.163422 977.909729,199.596680 976.855164,198.252350 
	C973.288330,197.508163 969.748230,196.344543 966.148621,196.115570 
	C960.372986,195.748184 954.556885,195.936462 948.760498,196.037048 
	C947.441101,196.059937 946.132141,196.684021 944.099426,197.126160 
	C940.636414,198.636841 937.206848,200.232971 933.690674,201.607620 
	C932.592468,202.036987 931.211487,202.137421 930.044250,201.925003 
	C925.827576,201.157639 921.647461,199.471970 917.452332,199.468155 
	C910.817688,199.462128 903.786133,198.820251 897.561707,203.356995 
	C895.347229,204.236588 893.132690,205.116196 891.003967,206.005356 
	C891.003967,206.005356 891.013916,205.919617 890.309570,205.923157 
	C889.178284,206.949814 888.046936,207.976471 887.015442,209.013077 
	C887.015442,209.013077 887.026245,208.913406 886.425781,208.996964 
M793.713196,297.949554 
	C794.502930,296.633118 795.292603,295.316681 795.988525,294.002380 
	C795.988525,294.002380 795.990295,294.096222 796.672180,293.932831 
	C798.447510,291.290253 800.222778,288.647705 801.999817,285.579254 
	C801.999817,285.579254 801.964111,285.154877 802.728149,285.102692 
	C808.507141,277.960999 812.582031,270.060150 813.849487,259.954102 
	C817.471985,249.489014 818.521729,238.863739 817.136780,227.785126 
	C815.166687,212.026566 805.377075,200.133743 789.671265,195.290482 
	C782.632874,191.045593 775.238770,192.910736 767.184265,194.100357 
	C755.787109,197.861053 750.122681,206.625793 746.262390,217.830902 
	C745.148132,219.293640 743.527771,220.598282 743.012512,222.248093 
	C741.320129,227.666504 739.734985,233.153244 738.656860,238.719910 
	C737.269592,245.883072 736.412476,253.148926 735.158875,261.326447 
	C734.825012,264.997925 734.491089,268.669434 734.289673,273.167053 
	C733.556763,277.077881 732.501648,280.964264 732.202576,284.907959 
	C731.998291,287.602020 733.090942,290.367889 733.184143,293.115875 
	C733.507263,302.643158 733.321167,312.201019 734.030029,321.694885 
	C734.283752,325.093170 736.531250,328.342560 737.883606,332.559570 
	C738.084167,343.126190 742.878052,352.199341 748.042419,360.848022 
	C756.053650,374.264557 767.712036,381.079895 785.951843,378.090088 
	C796.519226,376.357941 803.842651,369.607483 809.664124,361.405151 
	C814.709045,354.296967 819.301147,346.697754 820.762939,337.298584 
	C824.852661,332.414520 824.020203,326.540131 823.991211,320.861511 
	C823.971558,317.014648 822.063904,314.846008 817.189392,314.911896 
	C815.388672,314.615417 813.594910,314.122437 811.785950,314.058624 
	C805.975098,313.853638 802.931396,316.178864 801.863525,321.842743 
	C801.648987,322.144440 801.434448,322.446136 800.819031,323.112274 
	C800.699890,323.248016 800.580750,323.383759 799.861755,323.095978 
	C797.202148,328.138550 794.995056,333.508972 791.684082,338.079712 
	C790.124512,340.232635 789.625732,344.871704 784.506531,343.264435 
	C784.141663,343.064301 783.776733,342.864166 783.557068,342.708557 
	C783.557068,342.708557 783.483093,342.841187 783.688721,342.000336 
	C783.119568,339.316681 782.550415,336.633026 782.039185,333.076080 
	C781.050659,327.318329 780.062195,321.560547 779.046570,314.971466 
	C778.747986,310.327209 779.578857,306.340576 784.495728,304.252411 
	C786.322388,303.476654 787.898254,302.110321 790.086853,300.991486 
	C790.420715,300.493958 790.754639,299.996460 791.706299,299.878693 
	C792.164917,299.337372 792.623474,298.796051 793.713196,297.949554 
M258.893707,140.145874 
	C259.207153,137.769577 259.520599,135.393265 259.963196,132.129684 
	C260.610992,127.082993 261.258789,122.036293 262.075256,116.146713 
	C263.072540,108.080780 263.718231,99.946671 265.261597,91.986603 
	C265.787659,89.273308 264.574524,84.807777 269.570801,84.064651 
	C276.057556,83.099831 282.514252,81.932808 289.919312,80.936432 
	C296.433777,80.658905 302.988922,80.703163 309.435577,79.888939 
	C311.154694,79.671814 313.595673,76.939415 313.786835,75.156136 
	C313.980408,73.350761 316.176880,69.824577 311.867737,68.223747 
	C306.423767,58.519878 297.937469,54.161205 287.015442,53.988110 
	C283.215912,53.927891 279.419220,53.685856 275.716583,54.356571 
	C270.557587,54.397415 265.306274,55.068478 260.261505,54.329453 
	C252.935181,53.256191 245.786819,52.387177 237.916061,55.029850 
	C234.801849,56.071850 231.590424,56.892307 228.595551,58.206329 
	C223.761307,60.327393 220.837021,63.745293 222.976501,69.697433 
	C222.514771,80.784729 220.450180,91.615257 217.921295,102.390587 
	C216.352936,109.073105 216.987946,116.078339 214.969330,122.755959 
	C214.044937,125.813889 214.177414,129.181030 213.719269,132.392059 
	C212.135361,143.493149 210.364883,154.569550 208.933212,165.689819 
	C207.848587,174.114334 207.072845,182.582825 206.340820,191.047409 
	C205.530853,200.413223 204.965927,209.800079 204.191330,219.169266 
	C204.076675,220.555923 203.395660,221.895752 202.125671,223.367462 
	C201.707413,227.264282 201.188629,231.153381 200.889160,235.059311 
	C199.850479,248.607162 198.641953,262.148743 197.971680,275.716095 
	C197.400085,287.285919 197.480621,298.887970 197.132446,311.484711 
	C197.207993,314.893585 197.283539,318.302490 197.455719,322.283173 
	C197.650040,323.213867 197.844345,324.144562 198.037964,324.986450 
	C198.037964,324.986450 197.966553,324.933655 197.959824,325.783875 
	C198.050827,332.852936 197.899872,339.937592 198.354584,346.983185 
	C198.530899,349.715057 200.076965,352.358521 201.003876,355.881439 
	C201.658295,365.304779 204.589600,373.687531 212.355942,380.647064 
	C218.110413,386.474976 225.060486,386.117493 232.235291,384.443939 
	C239.834396,382.671356 243.419693,378.220245 243.180878,369.807281 
	C242.864975,358.679382 243.178207,347.534729 243.097565,336.398193 
	C243.076263,333.457245 243.839935,332.530060 247.114212,331.757141 
	C259.939972,328.729462 272.899323,329.296326 285.858215,329.017029 
	C288.309845,328.964172 291.473572,328.490570 293.002777,326.930756 
	C295.303070,324.584442 297.744354,321.082672 297.684601,318.121368 
	C297.635864,315.706818 294.010742,313.364471 291.397125,310.619354 
	C287.827515,309.034576 284.257904,307.449768 280.829529,305.117004 
	C279.231781,304.039062 277.705170,302.163422 276.024658,302.013580 
	C265.678650,301.091156 255.297897,300.558228 244.944595,300.022827 
	C244.944595,300.022827 245.072479,300.015747 245.052933,299.402222 
	C244.705887,299.247681 244.358826,299.093109 243.999420,298.998352 
	C243.999420,298.998352 244.059647,298.988342 244.109818,298.070709 
	C244.241653,287.990540 244.373489,277.910400 244.726669,266.862305 
	C244.816101,265.543243 244.905533,264.224182 244.918121,262.285919 
	C245.296036,261.171997 245.874405,260.083588 246.019730,258.940094 
	C247.064178,250.722382 248.310638,242.515350 248.932098,234.262665 
	C249.716461,223.846710 249.968384,213.390640 250.686630,202.054718 
	C250.793381,200.824387 250.900116,199.594055 251.691940,197.856201 
	C252.485657,190.630386 253.279373,183.404572 254.856888,175.805084 
	C255.243988,170.769806 255.444031,165.711243 256.066742,160.705276 
	C256.803131,154.785263 257.904449,148.910629 258.995148,142.338974 
	C258.930054,141.885635 258.864960,141.432297 258.893707,140.145874 
M336.030518,151.039688 
	C336.030518,151.039688 336.020203,150.893723 335.272247,151.127304 
	C332.066925,155.753769 331.961060,163.020325 335.390228,166.885117 
	C339.401703,173.544281 345.963623,176.513809 353.199921,179.729874 
	C358.035767,179.849945 362.912628,180.414734 367.696716,179.973541 
	C373.237640,179.462555 375.344574,176.529160 375.840332,169.611679 
	C377.172546,161.040009 373.631653,154.731339 366.526184,150.322098 
	C358.081451,145.081772 349.347565,141.386612 339.443176,147.776077 
	C338.910736,148.196732 338.378296,148.617401 337.525360,149.137161 
	C337.319000,149.242279 337.161346,149.396988 336.523621,149.979019 
	C336.310791,150.338181 336.097992,150.697357 336.030518,151.039688 
M359.034271,377.939972 
	C359.034271,377.939972 358.957367,377.925598 359.000549,378.752747 
	C362.993988,383.051178 371.789551,382.970551 375.388214,378.383911 
	C376.588867,375.269653 377.789551,372.155396 379.788391,368.815460 
	C380.201721,362.433441 381.139465,356.034027 380.928101,349.672760 
	C380.340302,331.984100 377.497711,314.452179 378.848907,296.593018 
	C380.045380,280.779175 379.554352,264.837677 380.014038,248.087479 
	C380.277100,245.841568 380.709045,243.600418 380.772766,241.348877 
	C380.999878,233.326874 381.119934,225.296600 374.980682,219.009506 
	C374.980682,219.009506 375.089233,219.015076 375.045959,218.295197 
	C370.923218,211.199997 364.320343,208.268463 356.557648,208.174545 
	C352.340363,208.123535 348.107422,209.368332 343.295319,210.346390 
	C339.537384,212.389404 337.246033,215.448685 337.032227,219.795624 
	C336.634308,227.885468 336.324127,235.979630 335.194580,244.330353 
	C332.213959,260.110474 332.910126,276.051300 332.948578,292.802612 
	C332.999847,294.210846 333.051117,295.619080 332.996307,297.955841 
	C332.958832,305.191040 332.876678,312.426605 332.932709,319.661102 
	C332.940948,320.729492 333.603210,321.792786 334.797699,323.068298 
	C334.935577,323.863159 335.433075,324.822266 335.156464,325.427795 
	C331.921326,332.509857 337.049042,339.050903 336.453033,345.958893 
	C336.391052,346.677246 337.452148,347.492493 338.012238,348.976257 
	C340.226227,354.781219 342.134003,360.728485 344.745697,366.348633 
	C347.066467,371.342743 350.507782,375.598328 356.870331,376.320190 
	C357.598633,376.885254 358.326935,377.450317 359.034271,377.939972 
M487.076385,256.141357 
	C487.394806,253.398468 487.889160,250.662827 488.002502,247.911484 
	C488.636078,232.532043 489.177521,217.148804 489.901215,200.898880 
	C491.258118,191.723785 492.543976,182.537277 494.014618,173.380447 
	C494.464996,170.575958 495.897125,169.041183 499.322632,168.817398 
	C509.114777,168.177719 518.856873,166.808777 528.641296,165.999527 
	C534.101074,165.547958 537.146667,162.040512 535.599365,157.311081 
	C531.436829,144.588013 516.350647,135.686447 503.118683,138.145981 
	C496.149750,139.441360 494.857117,138.302628 495.757568,130.537888 
	C495.848480,125.716492 496.091187,120.891693 495.983490,116.074738 
	C495.893097,112.030998 495.394257,107.996399 494.982178,103.187332 
	C494.028320,99.622879 493.235535,96.284172 489.583649,93.945404 
	C482.289917,89.274323 474.387421,89.317886 466.500854,90.407509 
	C459.954346,91.311989 456.063019,96.285896 455.022400,103.193367 
	C453.659332,112.241417 452.292450,121.289459 451.024170,130.351074 
	C449.900024,138.383057 449.232086,138.898880 441.132599,139.075333 
	C435.875946,139.189865 430.530731,139.246841 425.407135,140.254471 
	C420.928894,141.135162 414.770752,141.035721 414.408966,147.675659 
	C414.224426,151.062180 415.061493,154.961395 416.720032,157.906113 
	C421.815979,166.953857 430.224518,171.549377 440.300720,172.864304 
	C444.734375,173.442886 446.383545,175.632416 446.019592,179.678375 
	C445.477753,185.701752 444.729370,191.706558 443.214935,198.091934 
	C442.766174,204.798996 442.230499,211.501663 441.891449,218.214264 
	C441.500244,225.957840 441.320740,233.711868 440.977875,241.458191 
	C440.677948,248.235291 440.279083,255.007996 439.127991,262.211243 
	C439.043152,281.888489 438.948059,301.565704 438.917969,321.243042 
	C438.916962,321.901123 439.573029,322.560181 439.945679,324.127502 
	C440.281219,331.000427 440.265289,337.912750 441.029358,344.737671 
	C442.396881,356.952362 442.466919,369.503021 448.891998,381.506897 
	C448.583923,387.655396 452.369293,391.796631 456.130829,396.718414 
	C460.725159,401.299896 466.383423,402.318298 472.632538,402.102509 
	C479.839783,401.853607 484.148224,397.749329 484.084167,390.491699 
	C484.038696,385.340973 483.921661,380.190826 484.005859,374.183990 
	C484.331512,369.927124 484.815643,365.675385 484.953491,361.412445 
	C485.387329,347.997986 485.691071,334.579376 486.866730,320.786224 
	C486.883087,299.531860 486.899445,278.277527 487.076385,256.141357 
z"/>
<path fill="#080607" opacity="1.000000" stroke="none" 
	d="
M634.982910,190.692780 
	C637.804321,189.271927 640.625732,187.851059 644.083008,186.312317 
	C651.485718,186.148453 658.252563,186.102493 665.019348,186.056534 
	C678.902771,192.513290 686.615723,203.966568 690.836243,218.821793 
	C691.013367,227.275284 691.722473,235.042282 691.524658,242.786118 
	C691.408508,247.333221 689.849792,251.843491 688.939941,256.370331 
	C687.515259,267.468781 681.215210,276.274963 675.205383,285.164764 
	C672.528381,289.124512 669.309998,292.718231 665.815369,296.746216 
	C662.433350,299.968628 659.505371,302.861450 656.746460,305.907410 
	C655.643433,307.125183 654.913208,308.680603 654.013306,310.082336 
	C654.013306,310.082336 654.012695,310.012085 653.828979,309.658264 
	C649.268616,313.006989 644.891296,316.708771 640.537354,320.437805 
	C640.520386,320.452362 640.838440,320.857941 641.000000,321.080902 
	C641.000000,321.080902 640.992126,320.973877 640.568115,320.775146 
	C640.096619,321.078369 640.049133,321.580292 640.001648,322.082214 
	C640.001648,322.082214 639.996216,322.015900 639.569214,321.662964 
	C638.912842,321.897858 638.683472,322.485718 638.454102,323.073547 
	C638.454102,323.073547 638.490112,323.000671 638.480774,322.504272 
	C636.942505,322.530670 635.413635,323.053497 633.553833,323.531891 
	C632.809326,323.619476 632.395691,323.751495 631.533264,323.889282 
	C624.542725,323.053925 618.000977,322.212769 610.406677,321.236267 
	C609.662170,327.976166 608.831543,335.496826 608.000854,343.017456 
	C606.933228,353.911774 605.865601,364.806061 604.522034,376.427216 
	C603.614380,387.131195 602.982666,397.108337 602.293701,407.481659 
	C601.866760,419.768463 601.278076,431.658142 601.224304,443.550171 
	C601.199280,449.081421 599.968140,453.279694 594.253662,455.084839 
	C580.067566,457.895599 572.862915,448.906067 566.786316,438.489441 
	C563.619507,433.060760 561.186157,427.204224 558.283936,420.938568 
	C556.404419,409.569611 554.662415,398.803040 553.005005,387.599823 
	C552.193665,374.419647 551.297729,361.676117 550.401733,348.932556 
	C550.326050,347.450653 550.250305,345.968781 550.300476,343.941650 
	C550.426331,343.396423 550.334167,343.605316 550.334167,343.605316 
	C550.276489,343.373138 550.218750,343.140961 550.176514,342.262665 
	C550.159302,341.417816 550.126587,341.219086 550.171082,340.773499 
	C550.127319,339.693970 550.006348,338.861267 549.943481,337.570984 
	C549.955383,322.061493 549.909119,307.009613 550.012329,291.612915 
	C550.315308,286.115845 550.358704,280.957458 550.643799,275.812500 
	C551.360901,262.869873 552.187012,249.933273 553.048218,236.552841 
	C553.279419,233.437042 553.431702,230.762650 553.722290,227.850143 
	C553.860413,227.066772 553.860229,226.521515 553.967773,225.565308 
	C554.267212,223.168839 554.500793,221.186325 554.642761,219.197296 
	C555.110046,212.650787 555.544128,206.101913 555.990967,199.553940 
	C556.708679,195.022980 556.840515,190.280838 558.368530,186.041992 
	C559.254089,183.585419 562.385864,181.938568 565.278442,179.746826 
	C573.174194,177.750214 580.156616,178.092804 586.974548,180.940231 
	C587.257812,181.216843 587.541016,181.493454 588.256592,182.169510 
	C589.253662,182.728409 589.818420,182.887878 590.383179,183.047363 
	C590.826172,183.409348 591.269165,183.771347 591.667114,184.698761 
	C595.484863,192.328476 596.485962,199.941788 596.249451,207.878586 
	C596.008606,215.958572 596.073792,224.047684 596.005005,232.132797 
	C595.919189,235.020996 595.833496,237.909195 595.511475,241.550461 
	C594.539917,251.507294 593.804688,260.711060 593.069458,269.914825 
	C593.859131,270.062347 594.648865,270.209900 595.438599,270.357452 
	C596.121094,268.375580 596.803589,266.393707 597.486084,264.411865 
	C597.642212,264.214569 597.798340,264.017242 598.105957,263.584564 
	C598.257385,263.349213 598.302429,262.965973 598.302429,262.965973 
	C598.302429,262.965973 598.595947,263.241272 598.595947,263.241272 
	C599.295044,260.214478 599.671814,257.067230 600.750122,254.182144 
	C605.049622,242.678421 609.531372,231.242065 614.044067,219.819672 
	C614.703552,218.150360 615.895935,216.691589 616.855835,214.807465 
	C617.148438,214.118759 617.427002,213.757965 617.705627,213.397171 
	C617.705627,213.397171 617.928223,213.057449 618.193542,212.589890 
	C618.976257,210.715912 619.493591,209.309494 620.010986,207.903076 
	C620.010986,207.903091 620.022888,208.018661 620.296631,208.193573 
	C623.380676,204.214691 626.190979,200.060883 629.001282,195.907074 
	C629.001282,195.907074 629.012878,196.024155 629.358276,196.184875 
	C629.816833,195.861572 629.930054,195.377548 630.043213,194.893509 
	C630.043213,194.893509 630.040466,195.025589 630.358887,195.199982 
	C631.125427,194.553146 631.573486,193.731903 632.021484,192.910645 
	C632.021484,192.910645 632.007874,193.007095 632.208130,193.323639 
	C632.958496,193.076584 633.508606,192.513000 634.058777,191.949402 
	C634.058777,191.949417 634.051575,192.016357 633.837646,191.796555 
	C634.076721,191.282089 634.529846,190.987427 634.982910,190.692780 
M622.268433,269.810089 
	C620.157715,269.488464 617.695007,269.857117 619.999817,272.295685 
	C622.208740,274.632782 621.231934,276.344147 620.745056,278.545471 
	C619.752991,283.030518 618.916748,287.550018 617.914917,292.562561 
	C619.506165,292.171234 619.865845,292.167694 620.118347,292.001465 
	C620.527893,291.731873 620.923401,291.400360 621.228027,291.017853 
	C636.106079,272.332733 646.574646,251.628891 649.686340,227.693909 
	C650.116272,224.387192 649.226562,220.908905 648.947754,217.510040 
	C648.345825,217.436859 647.743835,217.363678 647.141907,217.290512 
	C646.006104,218.610931 644.540527,219.767471 643.789368,221.279053 
	C639.690369,229.527878 635.510498,237.753159 631.859192,246.202896 
	C628.536255,253.892899 625.852905,261.859283 622.268433,269.810089 
M604.532837,351.940308 
	C604.376892,351.558380 604.220886,351.176422 604.064880,350.794464 
	C603.840149,350.975067 603.615417,351.155670 603.390686,351.336334 
	C603.660889,351.633392 603.931152,351.930450 604.532837,351.940308 
z"/>
<path fill="#080707" opacity="1.000000" stroke="none" 
	d="
M197.359085,321.711365 
	C197.283539,318.302490 197.207993,314.893585 197.458221,310.791046 
	C198.431763,306.922119 199.494705,303.768188 199.658966,300.568115 
	C200.624390,281.760712 201.373001,262.942230 202.211258,244.128235 
	C202.450409,238.760605 202.744736,233.395447 203.115723,227.682785 
	C203.695175,225.590637 204.409302,223.871887 204.612274,222.094757 
	C206.080963,209.234100 207.245789,196.335983 208.889206,183.498672 
	C211.701401,161.531647 214.611359,139.573669 217.836151,117.664276 
	C219.717422,104.882782 222.539963,92.238884 224.373810,79.452019 
	C224.826645,76.294594 223.076553,72.821228 222.339127,69.493103 
	C220.837021,63.745293 223.761307,60.327393 228.595551,58.206329 
	C231.590424,56.892307 234.801849,56.071850 238.620331,55.170120 
	C245.534592,54.535099 251.740631,53.726238 257.955841,52.995255 
	C262.840973,52.420700 267.730103,51.816246 272.635223,51.530094 
	C273.588501,51.474487 274.623810,52.824959 275.621246,53.526859 
	C279.419220,53.685856 283.215912,53.927891 287.015442,53.988110 
	C297.937469,54.161205 306.423767,58.519878 311.876160,68.944305 
	C313.778412,75.042778 311.409027,78.756409 305.738647,78.989410 
	C300.152832,79.218948 294.557434,79.215271 288.557037,79.285431 
	C282.079742,80.190750 276.026123,81.237953 269.938080,82.015648 
	C266.314575,82.478500 264.170715,83.989319 263.725708,87.844337 
	C262.602051,97.578697 261.305786,107.293137 259.903870,117.376274 
	C259.175415,122.827522 258.621735,127.918060 257.962006,133.350311 
	C257.565369,136.130081 257.274750,138.568115 256.834778,141.314819 
	C256.755341,142.067902 256.825226,142.512329 256.789429,143.329559 
	C255.515518,154.149536 254.347275,164.596725 253.012207,175.406845 
	C252.232544,183.301086 251.619690,190.832413 251.006851,198.363724 
	C250.900116,199.594055 250.793381,200.824387 250.556488,202.778305 
	C248.615875,223.302963 246.805420,243.104050 244.994965,262.905121 
	C244.905533,264.224182 244.816101,265.543243 244.547485,267.627136 
	C243.640015,277.959290 242.876251,287.524323 242.269562,297.099335 
	C242.232208,297.688843 243.434250,298.356842 244.059647,298.988342 
	C244.059647,298.988342 243.999420,298.998352 243.753998,299.360779 
	C244.029861,299.820740 244.551178,299.918243 245.072479,300.015747 
	C245.072479,300.015747 244.944595,300.022827 244.932678,300.371460 
	C247.158691,300.942871 249.401230,301.393921 251.633774,301.349030 
	C261.594879,301.148895 271.406036,301.761627 280.688293,305.864960 
	C284.257904,307.449768 287.827515,309.034576 291.677979,311.184570 
	C296.554535,317.361115 297.328217,320.468475 293.448700,323.792908 
	C291.111633,325.795593 287.274597,326.569855 284.014648,326.881287 
	C271.336395,328.092560 258.612152,328.814178 245.921249,329.906403 
	C242.232529,330.223877 240.540482,332.585266 240.593811,336.414459 
	C240.755585,348.029236 240.734695,359.646423 240.840210,371.262207 
	C240.900925,377.944794 239.024109,380.550720 232.676086,382.484497 
	C225.418671,384.695312 218.630920,383.181458 212.030838,380.009125 
	C204.589600,373.687531 201.658295,365.304779 201.154541,355.137817 
	C200.745773,347.957275 200.270966,341.511383 199.592590,335.087006 
	C199.233170,331.683258 198.520020,328.316895 197.966553,324.933655 
	C197.966553,324.933655 198.037964,324.986450 197.761200,324.860779 
	C197.442657,323.727203 197.400864,322.719269 197.359085,321.711365 
z"/>
<path fill="#090607" opacity="1.000000" stroke="none" 
	d="
M971.376343,219.954407 
	C971.918518,221.640839 972.460754,223.327255 972.914917,225.667206 
	C972.908752,226.869888 972.990540,227.419022 973.080017,228.371216 
	C977.946167,246.877930 980.265625,265.340698 980.788208,284.440308 
	C980.750793,286.212952 980.829773,287.586395 980.808472,289.355469 
	C980.542847,294.489624 980.377502,299.228119 980.053955,304.351746 
	C979.591614,309.182617 979.287476,313.628357 978.983337,318.074127 
	C976.613403,327.677429 974.243408,337.280701 971.534790,347.485352 
	C966.793579,354.737366 962.390991,361.388031 957.988403,368.038696 
	C955.263062,369.920288 952.537781,371.801880 949.158081,373.763947 
	C938.966980,374.383789 929.435364,375.113403 919.891052,375.367035 
	C916.173462,375.465881 912.427368,374.492493 908.694214,374.007507 
	C908.155334,373.717407 907.616394,373.427277 906.869141,372.897980 
	C906.660767,372.658813 906.774231,372.639008 906.774231,372.639008 
	C896.003784,371.239441 888.202332,364.850281 881.910095,356.757019 
	C875.011902,347.884399 870.670349,337.669800 869.204102,325.639191 
	C869.187500,323.903198 869.312500,322.892303 869.157349,321.926392 
	C866.823975,307.390656 866.768188,292.857269 868.520691,278.234009 
	C869.698486,268.406250 870.192078,258.496490 870.991760,248.623398 
	C874.528748,238.190659 878.065796,227.757935 882.055664,216.824066 
	C883.671265,214.188065 884.834045,212.053223 885.996887,209.918365 
	C885.996887,209.918381 886.008667,210.013733 886.365601,210.174484 
	C886.823792,209.861282 886.924988,209.387344 887.026245,208.913406 
	C887.026245,208.913406 887.015442,209.013077 887.283264,209.270813 
	C888.705383,208.325562 889.859619,207.122589 891.013916,205.919617 
	C891.013916,205.919617 891.003967,206.005356 891.232605,206.297913 
	C893.691406,205.648468 895.921509,204.706482 898.151672,203.764496 
	C903.786133,198.820251 910.817688,199.462128 917.452332,199.468155 
	C921.647461,199.471970 925.827576,201.157639 930.044250,201.925003 
	C931.211487,202.137421 932.592468,202.036987 933.690674,201.607620 
	C937.206848,200.232971 940.636414,198.636841 944.827881,197.177185 
	C947.854614,197.159607 950.166687,196.895905 952.448730,197.057404 
	C960.641602,197.637222 968.824341,198.360733 977.010864,199.029938 
	C977.909729,199.596680 978.808533,200.163422 980.215027,201.057953 
	C981.525940,201.605453 982.329163,201.825165 983.132446,202.044891 
	C983.132446,202.044876 983.006592,202.041306 982.908081,202.350632 
	C984.221191,204.808411 987.284912,208.051498 986.726318,208.894440 
	C985.217529,211.171478 982.309082,212.727081 979.674011,213.972549 
	C978.158081,214.689041 976.034973,213.986038 974.291382,214.385605 
	C971.356384,215.058182 969.704773,216.718002 971.376343,219.954407 
M885.958557,296.609344 
	C897.590088,308.178192 909.221619,319.747040 921.159119,331.913727 
	C922.491760,331.683105 924.297791,331.930542 925.086060,331.150116 
	C936.890198,319.463013 948.560120,307.640320 960.720337,295.453613 
	C961.706177,294.529053 962.691956,293.604462 964.019531,292.090363 
	C964.863953,290.859711 965.800110,289.681549 966.538635,288.390350 
	C974.473877,274.517120 966.853088,255.676086 951.942932,251.972122 
	C940.319763,247.470856 931.243958,252.203735 922.985535,260.303650 
	C921.268127,259.070892 919.704895,257.948761 918.029968,256.958252 
	C918.029968,256.958252 918.166321,256.852570 917.867310,256.247192 
	C916.245117,255.162933 914.622925,254.078690 912.628357,252.665024 
	C912.339233,252.472351 912.022156,252.396271 911.072266,251.975540 
	C900.384094,248.351944 890.131592,250.950211 882.921021,259.109863 
	C876.208130,266.706421 874.436462,278.787811 879.219360,287.591064 
	C880.408936,289.780487 883.060974,291.175293 885.063354,293.567474 
	C885.274475,294.363586 885.485535,295.159698 885.958557,296.609344 
z"/>
<path fill="#090708" opacity="1.000000" stroke="none" 
	d="
M791.088562,299.498962 
	C790.754639,299.996460 790.420715,300.493958 789.545898,300.644897 
	C776.760742,306.195740 775.831665,307.765991 778.314148,318.598816 
	C778.440063,320.263336 778.622009,321.600983 778.730957,323.182556 
	C778.943237,324.221375 779.228455,325.016235 779.449219,326.182129 
	C780.250305,329.018585 781.115784,331.483948 781.981262,333.949341 
	C782.550415,336.633026 783.119568,339.316681 783.577759,342.393372 
	C783.466736,342.786438 783.411865,342.664001 783.411865,342.664001 
	C783.776733,342.864166 784.141663,343.064301 784.644897,343.866333 
	C786.124084,344.677765 788.419128,345.437988 788.663452,345.014679 
	C792.748047,337.937286 796.576294,330.711914 800.461670,323.519470 
	C800.580750,323.383759 800.699890,323.248016 800.882568,322.745697 
	C801.231140,322.071411 801.516113,321.763702 801.801025,321.455994 
	C802.931396,316.178864 805.975098,313.853638 811.785950,314.058624 
	C813.594910,314.122437 815.388672,314.615417 817.601562,315.323761 
	C822.223083,317.857635 823.100037,321.382568 822.245178,325.675201 
	C821.457336,329.631165 820.723633,333.597870 819.966125,337.559875 
	C819.301147,346.697754 814.709045,354.296967 809.664124,361.405151 
	C803.842651,369.607483 796.519226,376.357941 785.951843,378.090088 
	C767.712036,381.079895 756.053650,374.264557 748.042419,360.848022 
	C742.878052,352.199341 738.084167,343.126190 737.756104,331.732971 
	C734.299622,312.800598 732.857178,294.591858 734.545532,276.199127 
	C734.661499,274.935577 734.297791,273.628021 734.157166,272.340912 
	C734.491089,268.669434 734.825012,264.997925 735.494690,260.675629 
	C739.490051,245.830734 743.149597,231.636658 746.809143,217.442581 
	C750.122681,206.625793 755.787109,197.861053 767.896057,194.134155 
	C775.730713,194.776321 782.853638,195.384689 789.976501,195.993073 
	C805.377075,200.133743 815.166687,212.026566 817.136780,227.785126 
	C818.521729,238.863739 817.471985,249.489014 813.570190,260.613007 
	C812.402466,263.189240 811.530579,265.114441 810.622314,267.022400 
	C807.743530,273.070038 804.851196,279.111206 801.964111,285.154877 
	C801.964111,285.154877 801.999817,285.579254 801.649109,285.756378 
	C799.528992,288.654388 797.759644,291.375305 795.990295,294.096222 
	C795.990295,294.096222 795.988525,294.002380 795.782593,293.720276 
	C794.692566,294.571838 793.808472,295.705505 792.587219,296.997772 
	C791.862854,297.937195 791.475708,298.718079 791.088562,299.498962 
M787.475525,236.119339 
	C783.540588,245.607208 782.014160,255.531097 781.752380,265.699646 
	C787.871704,257.656921 790.475708,248.633194 789.852600,238.739258 
	C789.788208,237.717682 788.645447,236.764008 787.475525,236.119339 
z"/>
<path fill="#080607" opacity="1.000000" stroke="none" 
	d="
M456.004547,396.011444 
	C452.369293,391.796631 448.583923,387.655396 448.746338,380.713379 
	C448.293854,379.334442 447.778900,378.772308 447.710419,378.160217 
	C445.555298,358.894257 442.550812,339.671509 441.511230,320.343384 
	C439.346558,280.097382 443.295776,239.922363 444.688721,199.757492 
	C445.817657,200.621948 446.719757,201.356445 447.382263,202.265533 
	C454.770233,212.402771 467.089020,215.723892 478.309448,210.211960 
	C481.472473,208.658188 484.151794,206.119705 487.249573,204.460068 
	C486.868073,222.281265 486.289978,239.675232 485.626892,257.511902 
	C485.407867,267.645660 485.273773,277.336700 484.990723,287.187256 
	C484.929779,287.889221 485.017822,288.431702 485.051270,289.438019 
	C485.049225,294.283508 485.101715,298.665100 485.005554,303.423065 
	C484.245819,327.536438 483.634766,351.273499 482.939240,375.408783 
	C482.583496,380.449646 482.255981,385.089813 482.053284,389.735413 
	C481.691742,398.020996 477.734558,401.667175 469.559998,400.243958 
	C464.936035,399.438934 460.516266,397.461060 456.004547,396.011444 
z"/>
<path fill="#FB575E" opacity="1.000000" stroke="none" 
	d="
M487.052948,204.032852 
	C484.151794,206.119705 481.472473,208.658188 478.309448,210.211960 
	C467.089020,215.723892 454.770233,212.402771 447.382263,202.265533 
	C446.719757,201.356445 445.817657,200.621948 444.670227,199.425980 
	C444.232086,198.603470 444.150482,198.161377 444.068878,197.719269 
	C444.729370,191.706558 445.477753,185.701752 446.019592,179.678375 
	C446.383545,175.632416 444.734375,173.442886 440.300720,172.864304 
	C430.224518,171.549377 421.815979,166.953857 416.720032,157.906113 
	C415.061493,154.961395 414.224426,151.062180 414.408966,147.675659 
	C414.770752,141.035721 420.928894,141.135162 425.407135,140.254471 
	C430.530731,139.246841 435.875946,139.189865 441.132599,139.075333 
	C449.232086,138.898880 449.900024,138.383057 451.024170,130.351074 
	C452.292450,121.289459 453.659332,112.241417 455.022400,103.193367 
	C456.063019,96.285896 459.954346,91.311989 466.500854,90.407509 
	C474.387421,89.317886 482.289917,89.274323 489.583649,93.945404 
	C493.235535,96.284172 494.028320,99.622879 495.001007,104.041016 
	C495.035309,113.613914 495.050781,122.333145 495.066254,131.052368 
	C494.857117,138.302628 496.149750,139.441360 503.118683,138.145981 
	C516.350647,135.686447 531.436829,144.588013 535.599365,157.311081 
	C537.146667,162.040512 534.101074,165.547958 528.641296,165.999527 
	C518.856873,166.808777 509.114777,168.177719 499.322632,168.817398 
	C495.897125,169.041183 494.464996,170.575958 494.014618,173.380447 
	C492.543976,182.537277 491.258118,191.723785 489.551422,201.403473 
	C488.773346,202.250504 488.345093,202.592941 487.648071,203.023392 
	C487.233490,203.429703 487.087646,203.748001 486.976562,204.081070 
	C487.011292,204.095840 487.052948,204.032852 487.052948,204.032852 
z"/>
<path fill="#080707" opacity="1.000000" stroke="none" 
	d="
M378.990234,369.041138 
	C377.789551,372.155396 376.588867,375.269653 374.779480,378.629028 
	C369.099609,378.557983 364.028503,378.241791 358.957367,377.925598 
	C358.957367,377.925598 359.034271,377.939972 358.848450,378.179138 
	C357.892761,377.937653 357.122955,377.457001 356.353119,376.976318 
	C350.507782,375.598328 347.066467,371.342743 344.745697,366.348633 
	C342.134003,360.728485 340.226227,354.781219 338.232483,348.325531 
	C337.259979,337.460083 336.067291,327.245361 334.916565,316.563690 
	C334.702942,309.741943 334.447327,303.387115 334.301575,296.729309 
	C334.332153,294.940979 334.252869,293.455688 334.251953,291.519836 
	C334.753998,278.262177 335.177673,265.455078 335.766602,252.471313 
	C335.948242,251.531448 335.964630,250.768204 336.080444,249.589905 
	C336.112396,247.473892 336.044891,245.772949 335.977356,244.071991 
	C336.324127,235.979630 336.634308,227.885468 337.032227,219.795624 
	C337.246033,215.448685 339.537384,212.389404 344.028107,210.220764 
	C356.448029,207.321548 366.453766,209.906418 374.332733,219.339539 
	C374.383118,219.399902 374.828369,219.130508 375.089233,219.015076 
	C375.089233,219.015076 374.980682,219.009506 374.738708,219.290894 
	C375.988983,225.062485 377.940857,230.480194 378.821991,236.066757 
	C379.478149,240.226837 378.748383,244.605499 378.455292,249.331284 
	C377.801300,262.905792 377.233948,276.033386 376.887756,289.166779 
	C376.660187,297.800690 376.479614,306.451813 376.760406,315.079559 
	C377.252441,330.198395 378.127258,345.304565 378.812012,360.417419 
	C378.942108,363.288788 378.934357,366.166412 378.990234,369.041138 
z"/>
<path fill="#090708" opacity="1.000000" stroke="none" 
	d="
M339.584412,147.248016 
	C349.347565,141.386612 358.081451,145.081772 366.526184,150.322098 
	C373.631653,154.731339 377.172546,161.040009 375.493286,170.187653 
	C372.819885,176.325684 368.675507,179.186020 362.613434,179.142487 
	C359.368042,179.119186 356.123138,179.031891 352.877991,178.973465 
	C345.963623,176.513809 339.401703,173.544281 335.316467,166.136169 
	C335.501892,160.556061 335.761047,155.724884 336.020203,150.893723 
	C336.020203,150.893723 336.030518,151.039688 336.392456,151.098236 
	C336.853729,150.638306 336.953033,150.119797 337.052368,149.601303 
	C337.161346,149.396988 337.319000,149.242279 337.661133,148.796616 
	C338.392761,148.053391 338.988586,147.650711 339.584412,147.248016 
z"/>
<path fill="#ABABAB" opacity="1.000000" stroke="none" 
	d="
M443.641907,197.905609 
	C444.150482,198.161377 444.232086,198.603470 444.332153,199.377090 
	C443.295776,239.922363 439.346558,280.097382 441.511230,320.343384 
	C442.550812,339.671509 445.555298,358.894257 447.710419,378.160217 
	C447.778900,378.772308 448.293854,379.334442 448.723755,380.282410 
	C442.466919,369.503021 442.396881,356.952362 441.029358,344.737671 
	C440.265289,337.912750 440.281219,331.000427 440.002533,323.194519 
	C440.014252,302.101898 439.969116,281.942261 439.923950,261.782654 
	C440.279083,255.007996 440.677948,248.235291 440.977875,241.458191 
	C441.320740,233.711868 441.500244,225.957840 441.891449,218.214264 
	C442.230499,211.501663 442.766174,204.798996 443.641907,197.905609 
z"/>
<path fill="#BBBABA" opacity="1.000000" stroke="none" 
	d="
M212.193390,380.328094 
	C218.630920,383.181458 225.418671,384.695312 232.676086,382.484497 
	C239.024109,380.550720 240.900925,377.944794 240.840210,371.262207 
	C240.734695,359.646423 240.755585,348.029236 240.593811,336.414459 
	C240.540482,332.585266 242.232529,330.223877 245.921249,329.906403 
	C258.612152,328.814178 271.336395,328.092560 284.014648,326.881287 
	C287.274597,326.569855 291.111633,325.795593 293.448700,323.792908 
	C297.328217,320.468475 296.554535,317.361115 291.965118,311.369934 
	C294.010742,313.364471 297.635864,315.706818 297.684601,318.121368 
	C297.744354,321.082672 295.303070,324.584442 293.002777,326.930756 
	C291.473572,328.490570 288.309845,328.964172 285.858215,329.017029 
	C272.899323,329.296326 259.939972,328.729462 247.114212,331.757141 
	C243.839935,332.530060 243.076263,333.457245 243.097565,336.398193 
	C243.178207,347.534729 242.864975,358.679382 243.180878,369.807281 
	C243.419693,378.220245 239.834396,382.671356 232.235291,384.443939 
	C225.060486,386.117493 218.110413,386.474976 212.193390,380.328094 
z"/>
<path fill="#ABABAB" opacity="1.000000" stroke="none" 
	d="
M222.657806,69.595268 
	C223.076553,72.821228 224.826645,76.294594 224.373810,79.452019 
	C222.539963,92.238884 219.717422,104.882782 217.836151,117.664276 
	C214.611359,139.573669 211.701401,161.531647 208.889206,183.498672 
	C207.245789,196.335983 206.080963,209.234100 204.612274,222.094757 
	C204.409302,223.871887 203.695175,225.590637 203.066193,227.287354 
	C202.935333,225.911255 202.955994,224.584259 202.976654,223.257248 
	C203.395660,221.895752 204.076675,220.555923 204.191330,219.169266 
	C204.965927,209.800079 205.530853,200.413223 206.340820,191.047409 
	C207.072845,182.582825 207.848587,174.114334 208.933212,165.689819 
	C210.364883,154.569550 212.135361,143.493149 213.719269,132.392059 
	C214.177414,129.181030 214.044937,125.813889 214.969330,122.755959 
	C216.987946,116.078339 216.352936,109.073105 217.921295,102.390587 
	C220.450180,91.615257 222.514771,80.784729 222.657806,69.595268 
z"/>
<path fill="#969696" opacity="1.000000" stroke="none" 
	d="
M379.389313,368.928284 
	C378.934357,366.166412 378.942108,363.288788 378.812012,360.417419 
	C378.127258,345.304565 377.252441,330.198395 376.760406,315.079559 
	C376.479614,306.451813 376.660187,297.800690 376.887756,289.166779 
	C377.233948,276.033386 377.801300,262.905792 378.650269,249.290558 
	C379.287781,248.848526 379.548584,248.897583 379.808319,248.952530 
	C379.554352,264.837677 380.045380,280.779175 378.848907,296.593018 
	C377.497711,314.452179 380.340302,331.984100 380.928101,349.672760 
	C381.139465,356.034027 380.201721,362.433441 379.389313,368.928284 
z"/>
<path fill="#BBBABA" opacity="1.000000" stroke="none" 
	d="
M202.551163,223.312347 
	C202.955994,224.584259 202.935333,225.911255 202.964218,227.633698 
	C202.744736,233.395447 202.450409,238.760605 202.211258,244.128235 
	C201.373001,262.942230 200.624390,281.760712 199.658966,300.568115 
	C199.494705,303.768188 198.431763,306.922119 197.528351,310.286560 
	C197.480621,298.887970 197.400085,287.285919 197.971680,275.716095 
	C198.641953,262.148743 199.850479,248.607162 200.889160,235.059311 
	C201.188629,231.153381 201.707413,227.264282 202.551163,223.312347 
z"/>
<path fill="#969696" opacity="1.000000" stroke="none" 
	d="
M870.644531,248.852066 
	C870.192078,258.496490 869.698486,268.406250 868.520691,278.234009 
	C866.768188,292.857269 866.823975,307.390656 869.157349,321.926392 
	C869.312500,322.892303 869.187500,323.903198 869.197632,325.218018 
	C868.146179,321.595001 866.678223,317.702911 866.133484,313.685608 
	C865.381897,308.143738 865.059387,302.506683 865.073975,296.911774 
	C865.082703,293.553925 866.283020,290.216461 866.584595,286.837463 
	C866.918152,283.100281 866.701233,279.316528 866.964783,275.570007 
	C867.505249,267.885620 868.157043,260.207794 868.893311,252.539795 
	C869.007385,251.352798 869.812012,250.232101 870.644531,248.852066 
z"/>
<path fill="#ABABAB" opacity="1.000000" stroke="none" 
	d="
M244.956543,262.595520 
	C246.805420,243.104050 248.615875,223.302963 250.438171,203.226883 
	C249.968384,213.390640 249.716461,223.846710 248.932098,234.262665 
	C248.310638,242.515350 247.064178,250.722382 246.019730,258.940094 
	C245.874405,260.083588 245.296036,261.171997 244.956543,262.595520 
z"/>
<path fill="#969696" opacity="1.000000" stroke="none" 
	d="
M483.023743,375.010529 
	C483.634766,351.273499 484.245819,327.536438 485.192932,303.781006 
	C485.701050,309.562500 485.873108,315.362427 486.045166,321.162354 
	C485.691071,334.579376 485.387329,347.997986 484.953491,361.412445 
	C484.815643,365.675385 484.331512,369.927124 483.717590,374.615784 
	C483.429352,375.047607 483.023743,375.010529 483.023743,375.010529 
z"/>
<path fill="#ABABAB" opacity="1.000000" stroke="none" 
	d="
M980.904724,284.041168 
	C980.265625,265.340698 977.946167,246.877930 973.276855,228.202789 
	C973.674377,227.357498 973.882751,227.083679 974.091064,226.809845 
	C975.721497,233.250793 977.923035,239.609985 978.859375,246.150299 
	C980.614441,258.409454 981.637024,270.773468 982.581360,283.548462 
	C981.767151,284.015747 981.335938,284.028442 980.904724,284.041168 
z"/>
<path fill="#BBBABA" opacity="1.000000" stroke="none" 
	d="
M260.078674,117.015556 
	C261.305786,107.293137 262.602051,97.578697 263.725708,87.844337 
	C264.170715,83.989319 266.314575,82.478500 269.938080,82.015648 
	C276.026123,81.237953 282.079742,80.190750 288.545349,79.541893 
	C288.956573,80.168839 288.970215,80.510834 288.983887,80.852829 
	C282.514252,81.932808 276.057556,83.099831 269.570801,84.064651 
	C264.574524,84.807777 265.787659,89.273308 265.261597,91.986603 
	C263.718231,99.946671 263.072540,108.080780 261.686401,116.580368 
	C260.891266,117.014526 260.484955,117.015045 260.078674,117.015556 
z"/>
<path fill="#969696" opacity="1.000000" stroke="none" 
	d="
M487.916809,202.935394 
	C488.345093,202.592941 488.773346,202.250504 489.476044,201.837463 
	C489.177521,217.148804 488.636078,232.532043 488.002502,247.911484 
	C487.889160,250.662827 487.394806,253.398468 486.694763,256.584290 
	C486.112732,257.041168 485.912323,257.055176 485.711884,257.069214 
	C486.289978,239.675232 486.868073,222.281265 487.249573,204.460068 
	C487.052948,204.032852 487.011292,204.095840 487.261658,204.053680 
	C487.646942,203.652802 487.781891,203.294098 487.916809,202.935394 
z"/>
<path fill="#969696" opacity="1.000000" stroke="none" 
	d="
M734.223389,272.753967 
	C734.297791,273.628021 734.661499,274.935577 734.545532,276.199127 
	C732.857178,294.591858 734.299622,312.800598 737.748657,331.283173 
	C736.531250,328.342560 734.283752,325.093170 734.030029,321.694885 
	C733.321167,312.201019 733.507263,302.643158 733.184143,293.115875 
	C733.090942,290.367889 731.998291,287.602020 732.202576,284.907959 
	C732.501648,280.964264 733.556763,277.077881 734.223389,272.753967 
z"/>
<path fill="#969696" opacity="1.000000" stroke="none" 
	d="
M552.969421,236.994263 
	C552.187012,249.933273 551.360901,262.869873 550.643799,275.812500 
	C550.358704,280.957458 550.315308,286.115845 549.826782,291.308105 
	C549.309692,290.161285 549.127625,288.974457 548.945618,287.787659 
	C549.612000,271.153046 550.278381,254.518402 551.352661,237.438232 
	C552.163452,236.993225 552.566467,236.993744 552.969421,236.994263 
z"/>
<path fill="#BBBABA" opacity="1.000000" stroke="none" 
	d="
M482.939270,375.408783 
	C483.023743,375.010529 483.429352,375.047607 483.632965,375.044006 
	C483.921661,380.190826 484.038696,385.340973 484.084167,390.491699 
	C484.148224,397.749329 479.839783,401.853607 472.632538,402.102509 
	C466.383423,402.318298 460.725159,401.299896 456.067688,396.364929 
	C460.516266,397.461060 464.936035,399.438934 469.559998,400.243958 
	C477.734558,401.667175 481.691742,398.020996 482.053284,389.735413 
	C482.255981,385.089813 482.583496,380.449646 482.939270,375.408783 
z"/>
<path fill="#ABABAB" opacity="1.000000" stroke="none" 
	d="
M608.304260,342.768829 
	C608.831543,335.496826 609.662170,327.976166 610.406677,321.236267 
	C618.000977,322.212769 624.542725,323.053925 631.540771,324.213593 
	C632.003967,324.964447 632.010803,325.396790 632.017700,325.829102 
	C625.411438,325.165558 618.805176,324.501984 612.529114,323.871582 
	C611.365601,329.404724 609.986633,335.962463 608.304260,342.768829 
z"/>
<path fill="#BBBABA" opacity="1.000000" stroke="none" 
	d="
M485.626892,257.511902 
	C485.912323,257.055176 486.112732,257.041168 486.614441,257.025177 
	C486.899445,278.277527 486.883087,299.531860 486.455933,320.974304 
	C485.873108,315.362427 485.701050,309.562500 485.341614,303.404663 
	C485.101715,298.665100 485.049225,294.283508 485.214111,289.279175 
	C485.334229,288.113556 485.236969,287.570648 485.139709,287.027740 
	C485.273773,277.336700 485.407867,267.645660 485.626892,257.511902 
z"/>
<path fill="#BBBABA" opacity="1.000000" stroke="none" 
	d="
M908.924561,374.330872 
	C912.427368,374.492493 916.173462,375.465881 919.891052,375.367035 
	C929.435364,375.113403 938.966980,374.383789 948.857483,373.903320 
	C945.690918,375.347260 942.231445,377.706421 938.638550,377.930969 
	C928.695129,378.552429 918.633728,378.814484 908.924561,374.330872 
z"/>
<path fill="#969696" opacity="1.000000" stroke="none" 
	d="
M596.382812,231.940765 
	C596.073792,224.047684 596.008606,215.958572 596.249451,207.878586 
	C596.485962,199.941788 595.484863,192.328476 591.798096,184.870148 
	C597.748352,188.485443 597.463684,195.045700 597.680481,200.682587 
	C598.077515,211.010910 597.141052,221.390503 596.382812,231.940765 
z"/>
<path fill="#BBBABA" opacity="1.000000" stroke="none" 
	d="
M594.410156,455.401917 
	C599.968140,453.279694 601.199280,449.081421 601.224304,443.550171 
	C601.278076,431.658142 601.866760,419.768463 602.551636,407.485779 
	C603.209106,407.072266 603.551453,407.050812 603.893799,407.029358 
	C603.628479,420.750763 603.443665,434.474518 603.048645,448.192169 
	C602.930969,452.279694 598.615173,455.840637 594.410156,455.401917 
z"/>
<path fill="#BBBABA" opacity="1.000000" stroke="none" 
	d="
M746.535767,217.636749 
	C743.149597,231.636658 739.490051,245.830734 735.578735,260.197693 
	C736.412476,253.148926 737.269592,245.883072 738.656860,238.719910 
	C739.734985,233.153244 741.320129,227.666504 743.012512,222.248093 
	C743.527771,220.598282 745.148132,219.293640 746.535767,217.636749 
z"/>
<path fill="#BBBABA" opacity="1.000000" stroke="none" 
	d="
M689.352478,256.308044 
	C689.849792,251.843491 691.408508,247.333221 691.524658,242.786118 
	C691.722473,235.042282 691.013367,227.275284 690.843628,219.195160 
	C692.041443,221.874619 694.006592,224.896133 693.944824,227.875626 
	C693.767456,236.428833 692.837158,244.971634 692.002136,253.498886 
	C691.906189,254.478134 690.541504,255.333130 689.352478,256.308044 
z"/>
<path fill="#BBBABA" opacity="1.000000" stroke="none" 
	d="
M548.559692,288.018280 
	C549.127625,288.974457 549.309692,290.161285 549.677307,291.652893 
	C549.909119,307.009613 549.955383,322.061493 549.770508,337.793060 
	C549.724243,339.321930 549.909058,340.171143 550.093872,341.020325 
	C550.126587,341.219086 550.159302,341.417816 550.115967,341.908936 
	C549.328430,341.369965 547.998230,340.539734 547.996643,339.707031 
	C547.964844,322.554504 548.084290,305.401672 548.559692,288.018280 
z"/>
<path fill="#969696" opacity="1.000000" stroke="none" 
	d="
M597.156128,264.173676 
	C596.803589,266.393707 596.121094,268.375580 595.438599,270.357452 
	C594.648865,270.209900 593.859131,270.062347 593.069458,269.914825 
	C593.804688,260.711060 594.539917,251.507294 595.413330,242.036102 
	C595.976318,249.157623 596.401245,256.546570 597.156128,264.173676 
z"/>
<path fill="#BBBABA" opacity="1.000000" stroke="none" 
	d="
M552.920410,388.036438 
	C554.662415,398.803040 556.404419,409.569611 558.069092,420.666412 
	C556.328857,415.630859 554.296997,410.345215 553.109131,404.876221 
	C551.974060,399.650330 551.717285,394.233643 551.421875,388.486694 
	C552.153015,388.060516 552.536682,388.048462 552.920410,388.036438 
z"/>
<path fill="#969696" opacity="1.000000" stroke="none" 
	d="
M553.005005,387.599823 
	C552.536682,388.048462 552.153015,388.060516 551.481567,388.061035 
	C550.828064,375.254761 546.756958,362.510284 550.537476,349.295013 
	C551.297729,361.676117 552.193665,374.419647 553.005005,387.599823 
z"/>
<path fill="#ABABAB" opacity="1.000000" stroke="none" 
	d="
M197.963196,325.358765 
	C198.520020,328.316895 199.233170,331.683258 199.592590,335.087006 
	C200.270966,341.511383 200.745773,347.957275 201.152115,354.718262 
	C200.076965,352.358521 198.530899,349.715057 198.354584,346.983185 
	C197.899872,339.937592 198.050827,332.852936 197.963196,325.358765 
z"/>
<path fill="#ABABAB" opacity="1.000000" stroke="none" 
	d="
M971.347046,219.583252 
	C969.704773,216.718002 971.356384,215.058182 974.291382,214.385605 
	C976.034973,213.986038 978.158081,214.689041 979.674011,213.972549 
	C982.309082,212.727081 985.217529,211.171478 986.726318,208.894440 
	C987.284912,208.051498 984.221191,204.808411 982.880554,202.294006 
	C986.511963,201.666107 988.433411,203.595779 989.061890,206.835922 
	C989.906860,211.192734 987.141602,213.711990 983.685120,214.983795 
	C980.435852,216.179398 976.794006,216.271454 973.385193,217.097549 
	C972.572998,217.294388 972.000549,218.480865 971.347046,219.583252 
z"/>
<path fill="#BBBABA" opacity="1.000000" stroke="none" 
	d="
M335.601379,252.647949 
	C335.177673,265.455078 334.753998,278.262177 333.986572,291.521362 
	C333.465912,291.972412 333.289032,291.971466 333.112122,291.970551 
	C332.910126,276.051300 332.213959,260.110474 335.585968,244.201172 
	C336.044891,245.772949 336.112396,247.473892 335.877380,249.879608 
	C335.583710,251.272217 335.592529,251.960083 335.601379,252.647949 
z"/>
<path fill="#BBBABA" opacity="1.000000" stroke="none" 
	d="
M280.758911,305.490967 
	C271.406036,301.761627 261.594879,301.148895 251.633774,301.349030 
	C249.401230,301.393921 247.158691,300.942871 244.924728,300.307922 
	C255.297897,300.558228 265.678650,301.091156 276.024658,302.013580 
	C277.705170,302.163422 279.231781,304.039062 280.758911,305.490967 
z"/>
<path fill="#969696" opacity="1.000000" stroke="none" 
	d="
M603.904297,406.570038 
	C603.551453,407.050812 603.209106,407.072266 602.608887,407.089600 
	C602.982666,397.108337 603.614380,387.131195 604.432129,376.910278 
	C604.383728,386.481201 604.149292,396.295959 603.904297,406.570038 
z"/>
<path fill="#BBBABA" opacity="1.000000" stroke="none" 
	d="
M253.179047,175.043915 
	C254.347275,164.596725 255.515518,154.149536 257.114838,143.339752 
	C257.979797,142.990219 258.413696,143.003281 258.847565,143.016327 
	C257.904449,148.910629 256.803131,154.785263 256.066742,160.705276 
	C255.444031,165.711243 255.243988,170.769806 254.344482,175.781006 
	C253.659683,175.477768 253.442001,175.240097 253.179047,175.043915 
z"/>
<path fill="#969696" opacity="1.000000" stroke="none" 
	d="
M244.084732,298.529541 
	C243.434250,298.356842 242.232208,297.688843 242.269562,297.099335 
	C242.876251,287.524323 243.640015,277.959290 244.436798,268.111115 
	C244.373489,277.910400 244.241653,287.990540 244.084732,298.529541 
z"/>
<path fill="#BBBABA" opacity="1.000000" stroke="none" 
	d="
M379.911194,248.520004 
	C379.548584,248.897583 379.287781,248.848526 378.830872,248.846069 
	C378.748383,244.605499 379.478149,240.226837 378.821991,236.066757 
	C377.940857,230.480194 375.988983,225.062485 374.741058,219.236603 
	C381.119934,225.296600 380.999878,233.326874 380.772766,241.348877 
	C380.709045,243.600418 380.277100,245.841568 379.911194,248.520004 
z"/>
<path fill="#ABABAB" opacity="1.000000" stroke="none" 
	d="
M289.451599,80.894630 
	C288.970215,80.510834 288.956573,80.168839 288.954590,79.570381 
	C294.557434,79.215271 300.152832,79.218948 305.738647,78.989410 
	C311.409027,78.756409 313.778412,75.042778 311.930542,69.282379 
	C316.176880,69.824577 313.980408,73.350761 313.786835,75.156136 
	C313.595673,76.939415 311.154694,79.671814 309.435577,79.888939 
	C302.988922,80.703163 296.433777,80.658905 289.451599,80.894630 
z"/>
<path fill="#BBBABA" opacity="1.000000" stroke="none" 
	d="
M439.526001,261.996948 
	C439.969116,281.942261 440.014252,302.101898 439.991089,322.740143 
	C439.573029,322.560181 438.916962,321.901123 438.917969,321.243042 
	C438.948059,301.565704 439.043152,281.888489 439.526001,261.996948 
z"/>
<path fill="#BBBABA" opacity="1.000000" stroke="none" 
	d="
M375.067596,218.655136 
	C374.828369,219.130508 374.383118,219.399902 374.332733,219.339539 
	C366.453766,209.906418 356.448029,207.321548 344.321228,210.061890 
	C348.107422,209.368332 352.340363,208.123535 356.557648,208.174545 
	C364.320343,208.268463 370.923218,211.199997 375.067596,218.655136 
z"/>
<path fill="#969696" opacity="1.000000" stroke="none" 
	d="
M334.874573,317.030640 
	C336.067291,327.245361 337.259979,337.460083 338.222443,347.968811 
	C337.452148,347.492493 336.391052,346.677246 336.453033,345.958893 
	C337.049042,339.050903 331.921326,332.509857 335.156464,325.427795 
	C335.433075,324.822266 334.935577,323.863159 334.413147,322.650330 
	C334.310577,320.498444 334.592590,318.764526 334.874573,317.030640 
z"/>
<path fill="#BBBABA" opacity="1.000000" stroke="none" 
	d="
M800.161682,323.307739 
	C796.576294,330.711914 792.748047,337.937286 788.663452,345.014679 
	C788.419128,345.437988 786.124084,344.677765 784.865723,344.088440 
	C789.625732,344.871704 790.124512,340.232635 791.684082,338.079712 
	C794.995056,333.508972 797.202148,328.138550 800.161682,323.307739 
z"/>
<path fill="#BBBABA" opacity="1.000000" stroke="none" 
	d="
M802.346130,285.128784 
	C804.851196,279.111206 807.743530,273.070038 810.622314,267.022400 
	C811.530579,265.114441 812.402466,263.189240 813.427490,261.026581 
	C812.582031,270.060150 808.507141,277.960999 802.346130,285.128784 
z"/>
<path fill="#ABABAB" opacity="1.000000" stroke="none" 
	d="
M353.038940,179.351669 
	C356.123138,179.031891 359.368042,179.119186 362.613434,179.142487 
	C368.675507,179.186020 372.819885,176.325684 375.428528,170.664764 
	C375.344574,176.529160 373.237640,179.462555 367.696716,179.973541 
	C362.912628,180.414734 358.035767,179.849945 353.038940,179.351669 
z"/>
<path fill="#969696" opacity="1.000000" stroke="none" 
	d="
M275.668915,53.941711 
	C274.623810,52.824959 273.588501,51.474487 272.635223,51.530094 
	C267.730103,51.816246 262.840973,52.420700 257.955841,52.995255 
	C251.740631,53.726238 245.534592,54.535099 238.985672,55.150200 
	C245.786819,52.387177 252.935181,53.256191 260.261505,54.329453 
	C265.306274,55.068478 270.557587,54.397415 275.668915,53.941711 
z"/>
<path fill="#BBBABA" opacity="1.000000" stroke="none" 
	d="
M820.364502,337.429230 
	C820.723633,333.597870 821.457336,329.631165 822.245178,325.675201 
	C823.100037,321.382568 822.223083,317.857635 818.009094,315.368652 
	C822.063904,314.846008 823.971558,317.014648 823.991211,320.861511 
	C824.020203,326.540131 824.852661,332.414520 820.364502,337.429230 
z"/>
<path fill="#ABABAB" opacity="1.000000" stroke="none" 
	d="
M555.668152,199.824814 
	C555.544128,206.101913 555.110046,212.650787 554.642761,219.197296 
	C554.500793,221.186325 554.267212,223.168839 553.692444,225.560150 
	C552.942078,225.966919 552.574890,225.967865 552.207642,225.968796 
	C553.253540,217.344437 554.299438,208.720062 555.668152,199.824814 
z"/>
<path fill="#ABABAB" opacity="1.000000" stroke="none" 
	d="
M958.372620,368.061951 
	C962.390991,361.388031 966.793579,354.737366 971.404480,347.891418 
	C970.415222,351.298126 969.858887,355.318085 967.854065,358.393860 
	C965.472107,362.048248 961.844604,364.890839 958.372620,368.061951 
z"/>
<path fill="#BBBABA" opacity="1.000000" stroke="none" 
	d="
M586.832275,180.602478 
	C580.156616,178.092804 573.174194,177.750214 565.666809,179.719604 
	C565.940796,178.950012 566.649719,177.194885 567.247375,177.231964 
	C573.810242,177.639221 580.986267,174.448685 586.832275,180.602478 
z"/>
<path fill="#ABABAB" opacity="1.000000" stroke="none" 
	d="
M253.012207,175.406845 
	C253.442001,175.240097 253.659683,175.477768 253.952591,175.967834 
	C253.279373,183.404572 252.485657,190.630386 251.349396,198.109955 
	C251.619690,190.832413 252.232544,183.301086 253.012207,175.406845 
z"/>
<path fill="#ABABAB" opacity="1.000000" stroke="none" 
	d="
M976.932983,198.641144 
	C968.824341,198.360733 960.641602,197.637222 952.448730,197.057404 
	C950.166687,196.895905 947.854614,197.159607 945.187378,197.129822 
	C946.132141,196.684021 947.441101,196.059937 948.760498,196.037048 
	C954.556885,195.936462 960.372986,195.748184 966.148621,196.115570 
	C969.748230,196.344543 973.288330,197.508163 976.932983,198.641144 
z"/>
<path fill="#ABABAB" opacity="1.000000" stroke="none" 
	d="
M778.370239,318.271942 
	C775.831665,307.765991 776.760742,306.195740 789.296753,300.655823 
	C787.898254,302.110321 786.322388,303.476654 784.495728,304.252411 
	C779.578857,306.340576 778.747986,310.327209 778.887146,316.005249 
	C778.608582,317.449982 778.489380,317.860962 778.370239,318.271942 
z"/>
<path fill="#BBBABA" opacity="1.000000" stroke="none" 
	d="
M664.948242,185.643677 
	C658.252563,186.102493 651.485718,186.148453 644.363525,186.087067 
	C645.006470,185.294418 646.028992,183.987518 646.999023,184.025406 
	C652.964966,184.258408 658.919067,184.795135 664.948242,185.643677 
z"/>
<path fill="#BBBABA" opacity="1.000000" stroke="none" 
	d="
M334.916595,316.563690 
	C334.592590,318.764526 334.310577,320.498444 333.995728,322.545410 
	C333.603210,321.792786 332.940948,320.729492 332.932709,319.661102 
	C332.876678,312.426605 332.958832,305.191040 333.321686,297.487885 
	C333.828613,297.024048 334.010132,297.028198 334.191681,297.032318 
	C334.447327,303.387115 334.702942,309.741943 334.916595,316.563690 
z"/>
<path fill="#ABABAB" opacity="1.000000" stroke="none" 
	d="
M980.212219,303.966644 
	C980.377502,299.228119 980.542847,294.489624 981.130066,289.366119 
	C981.980835,288.995667 982.409607,289.010193 982.838501,289.024719 
	C982.500061,293.706390 982.161682,298.388031 981.524475,303.485840 
	C980.887817,303.923492 980.550049,303.945068 980.212219,303.966644 
z"/>
<path fill="#BBBABA" opacity="1.000000" stroke="none" 
	d="
M358.978943,378.339172 
	C364.028503,378.241791 369.099609,378.557983 374.592712,378.916626 
	C371.789551,382.970551 362.993988,383.051178 358.978943,378.339172 
z"/>
<path fill="#BBBABA" opacity="1.000000" stroke="none" 
	d="
M654.356201,309.994751 
	C654.913208,308.680603 655.643433,307.125183 656.746460,305.907410 
	C659.505371,302.861450 662.433350,299.968628 665.637329,297.032074 
	C662.220398,301.335541 658.459717,305.621338 654.356201,309.994751 
z"/>
<path fill="#BBBABA" opacity="1.000000" stroke="none" 
	d="
M641.363647,321.069824 
	C640.838440,320.857941 640.520386,320.452362 640.537354,320.437805 
	C644.891296,316.708771 649.268616,313.006989 653.864075,309.659363 
	C649.964355,313.695740 645.845825,317.377228 641.363647,321.069824 
z"/>
<path fill="#BBBABA" opacity="1.000000" stroke="none" 
	d="
M789.823853,195.641785 
	C782.853638,195.384689 775.730713,194.776321 768.248169,194.095123 
	C775.238770,192.910736 782.632874,191.045593 789.823853,195.641785 
z"/>
<path fill="#ABABAB" opacity="1.000000" stroke="none" 
	d="
M259.903870,117.376274 
	C260.484955,117.015045 260.891266,117.014526 261.602081,117.001808 
	C261.258789,122.036293 260.610992,127.082993 259.604279,132.570633 
	C258.852905,133.010590 258.460480,133.009598 258.068024,133.008591 
	C258.621735,127.918060 259.175415,122.827522 259.903870,117.376274 
z"/>
<path fill="#BBBABA" opacity="1.000000" stroke="none" 
	d="
M628.668213,196.000885 
	C626.190979,200.060883 623.380676,204.214691 620.238892,208.200180 
	C622.716736,204.052795 625.526001,200.073746 628.668213,196.000885 
z"/>
<path fill="#BBBABA" opacity="1.000000" stroke="none" 
	d="
M335.646240,151.010513 
	C335.761047,155.724884 335.501892,160.556061 335.146606,165.868729 
	C331.961060,163.020325 332.066925,155.753769 335.646240,151.010513 
z"/>
<path fill="#969696" opacity="1.000000" stroke="none" 
	d="
M980.053955,304.351746 
	C980.550049,303.945068 980.887817,303.923492 981.478271,303.931030 
	C981.071655,308.573547 980.412415,313.187012 979.368286,317.937317 
	C979.287476,313.628357 979.591614,309.182617 980.053955,304.351746 
z"/>
<path fill="#E34F56" opacity="1.000000" stroke="none" 
	d="
M495.411926,130.795135 
	C495.050781,122.333145 495.035309,113.613914 495.048035,104.426224 
	C495.394257,107.996399 495.893097,112.030998 495.983490,116.074738 
	C496.091187,120.891693 495.848480,125.716492 495.411926,130.795135 
z"/>
<path fill="#BBBABA" opacity="1.000000" stroke="none" 
	d="
M778.314148,318.598816 
	C778.489380,317.860962 778.608582,317.449982 778.900696,316.420898 
	C780.062195,321.560547 781.050659,327.318329 782.010254,333.512695 
	C781.115784,331.483948 780.250305,329.018585 779.508911,325.796539 
	C779.356750,324.339447 779.080322,323.639038 778.803955,322.938599 
	C778.622009,321.600983 778.440063,320.263336 778.314148,318.598816 
z"/>
<path fill="#BBBABA" opacity="1.000000" stroke="none" 
	d="
M257.962006,133.350311 
	C258.460480,133.009598 258.852905,133.010590 259.539703,133.014282 
	C259.520599,135.393265 259.207153,137.769577 258.544098,140.562363 
	C257.791016,140.987961 257.387573,140.997055 256.984100,141.006149 
	C257.274750,138.568115 257.565369,136.130081 257.962006,133.350311 
z"/>
<path fill="#BBBABA" opacity="1.000000" stroke="none" 
	d="
M796.331238,294.014526 
	C797.759644,291.375305 799.528992,288.654388 801.648193,285.969299 
	C800.222778,288.647705 798.447510,291.290253 796.331238,294.014526 
z"/>
<path fill="#ABABAB" opacity="1.000000" stroke="none" 
	d="
M897.856689,203.560745 
	C895.921509,204.706482 893.691406,205.648468 891.189697,206.293121 
	C893.132690,205.116196 895.347229,204.236588 897.856689,203.560745 
z"/>
<path fill="#ABABAB" opacity="1.000000" stroke="none" 
	d="
M885.651123,209.997345 
	C884.834045,212.053223 883.671265,214.188065 882.347168,216.610168 
	C883.225708,214.623734 884.265503,212.350037 885.651123,209.997345 
z"/>
<path fill="#ABABAB" opacity="1.000000" stroke="none" 
	d="
M553.048218,236.552841 
	C552.566467,236.993744 552.163452,236.993225 551.458374,236.984680 
	C551.415466,234.264526 551.674622,231.552399 552.395386,228.450470 
	C553.099365,228.069885 553.341736,228.079086 553.584045,228.088272 
	C553.431702,230.762650 553.279419,233.437042 553.048218,236.552841 
z"/>
<path fill="#969696" opacity="1.000000" stroke="none" 
	d="
M334.301575,296.729309 
	C334.010132,297.028198 333.828613,297.024048 333.374756,297.023621 
	C333.051117,295.619080 332.999847,294.210846 333.030334,292.386597 
	C333.289032,291.971466 333.465912,291.972412 333.908203,291.971863 
	C334.252869,293.455688 334.332153,294.940979 334.301575,296.729309 
z"/>
<path fill="#969696" opacity="1.000000" stroke="none" 
	d="
M982.917908,288.609009 
	C982.409607,289.010193 981.980835,288.995667 981.230347,288.970520 
	C980.829773,287.586395 980.750793,286.212952 980.788208,284.440308 
	C981.335938,284.028442 981.767151,284.015747 982.521667,283.989624 
	C982.895752,285.381866 982.946594,286.787598 982.917908,288.609009 
z"/>
<path fill="#BBBABA" opacity="1.000000" stroke="none" 
	d="
M792.924377,296.839203 
	C793.808472,295.705505 794.692566,294.571838 795.829468,293.719208 
	C795.292603,295.316681 794.502930,296.633118 793.351440,297.749023 
	C792.967896,297.312073 792.946167,297.075623 792.924377,296.839203 
z"/>
<path fill="#ABABAB" opacity="1.000000" stroke="none" 
	d="
M890.661743,205.921387 
	C889.859619,207.122589 888.705383,208.325562 887.233398,209.265839 
	C888.046936,207.976471 889.178284,206.949814 890.661743,205.921387 
z"/>
<path fill="#BBBABA" opacity="1.000000" stroke="none" 
	d="
M619.674438,208.000458 
	C619.493591,209.309494 618.976257,210.715912 618.330322,212.439789 
	C618.580505,211.204102 618.959229,209.650970 619.674438,208.000458 
z"/>
<path fill="#ABABAB" opacity="1.000000" stroke="none" 
	d="
M633.884766,323.576355 
	C635.413635,323.053497 636.942505,322.530670 638.517273,322.522125 
	C637.284119,323.657806 636.005127,324.279205 634.322998,324.550781 
	C633.908203,323.992767 633.896484,323.784576 633.884766,323.576355 
z"/>
<path fill="#BBBABA" opacity="1.000000" stroke="none" 
	d="
M631.635864,192.920349 
	C631.573486,193.731903 631.125427,194.553146 630.292969,195.204529 
	C630.355835,194.333115 630.803040,193.631577 631.635864,192.920349 
z"/>
<path fill="#BBBABA" opacity="1.000000" stroke="none" 
	d="
M973.982178,226.583954 
	C973.882751,227.083679 973.674377,227.357498 973.269165,227.799744 
	C972.990540,227.419022 972.908752,226.869888 972.914062,226.114761 
	C973.291870,226.058533 973.582581,226.208298 973.982178,226.583954 
z"/>
<path fill="#969696" opacity="1.000000" stroke="none" 
	d="
M553.722290,227.850143 
	C553.341736,228.079086 553.099365,228.069885 552.493652,228.041733 
	C552.111633,227.563599 552.092957,227.104401 552.140991,226.307007 
	C552.574890,225.967865 552.942078,225.966919 553.584717,225.971130 
	C553.860229,226.521515 553.860413,227.066772 553.722290,227.850143 
z"/>
<path fill="#ABABAB" opacity="1.000000" stroke="none" 
	d="
M197.407410,321.997253 
	C197.400864,322.719269 197.442657,323.727203 197.761566,324.905182 
	C197.844345,324.144562 197.650040,323.213867 197.407410,321.997253 
z"/>
<path fill="#BBBABA" opacity="1.000000" stroke="none" 
	d="
M356.611725,376.648254 
	C357.122955,377.457001 357.892761,377.937653 358.858917,378.216858 
	C358.326935,377.450317 357.598633,376.885254 356.611725,376.648254 
z"/>
<path fill="#ABABAB" opacity="1.000000" stroke="none" 
	d="
M256.834778,141.314819 
	C257.387573,140.997055 257.791016,140.987961 258.497162,140.978912 
	C258.864960,141.432297 258.930054,141.885635 258.921356,142.677643 
	C258.413696,143.003281 257.979797,142.990219 257.220520,142.966949 
	C256.825226,142.512329 256.755341,142.067902 256.834778,141.314819 
z"/>
<path fill="#BBBABA" opacity="1.000000" stroke="none" 
	d="
M635.319702,190.837845 
	C634.529846,190.987427 634.076721,191.282089 633.804077,191.799957 
	C634.541870,191.676422 635.099121,191.329666 635.319702,190.837845 
z"/>
<path fill="#ABABAB" opacity="1.000000" stroke="none" 
	d="
M982.859497,201.883881 
	C982.329163,201.825165 981.525940,201.605453 980.421143,201.303497 
	C980.941895,201.388474 981.764160,201.555679 982.859497,201.883881 
z"/>
<path fill="#BBBABA" opacity="1.000000" stroke="none" 
	d="
M339.513794,147.512054 
	C338.988586,147.650711 338.392761,148.053391 337.821381,148.747070 
	C338.378296,148.617401 338.910736,148.196732 339.513794,147.512054 
z"/>
<path fill="#ABABAB" opacity="1.000000" stroke="none" 
	d="
M792.587219,296.997772 
	C792.946167,297.075623 792.967896,297.312073 793.035889,297.901611 
	C792.623474,298.796051 792.164917,299.337372 791.397461,299.688843 
	C791.475708,298.718079 791.862854,297.937195 792.587219,296.997772 
z"/>
<path fill="#BBBABA" opacity="1.000000" stroke="none" 
	d="
M633.553833,323.531921 
	C633.896484,323.784576 633.908203,323.992767 633.949585,324.512390 
	C633.518982,325.174622 633.058716,325.525452 632.308044,325.852722 
	C632.010803,325.396790 632.003967,324.964447 631.989624,324.207794 
	C632.395691,323.751495 632.809326,323.619476 633.553833,323.531921 
z"/>
<path fill="#969696" opacity="1.000000" stroke="none" 
	d="
M598.615845,263.291382 
	C598.595947,263.241272 598.302429,262.965973 598.302429,262.965973 
	C598.302429,262.965973 598.257385,263.349213 598.357361,263.303101 
	C598.457336,263.257019 598.635681,263.341522 598.615845,263.291382 
z"/>
<path fill="#BBBABA" opacity="1.000000" stroke="none" 
	d="
M617.952026,213.517426 
	C617.427002,213.757965 617.148438,214.118759 617.157959,214.582153 
	C617.696838,214.335739 617.947632,213.986725 617.952026,213.517426 
z"/>
<path fill="#BBBABA" opacity="1.000000" stroke="none" 
	d="
M801.832275,321.649384 
	C801.516113,321.763702 801.231140,322.071411 801.083069,322.563477 
	C801.434448,322.446136 801.648987,322.144440 801.832275,321.649384 
z"/>
<path fill="#969696" opacity="1.000000" stroke="none" 
	d="
M590.106934,182.961090 
	C589.818420,182.887878 589.253662,182.728409 588.493530,182.348892 
	C588.809021,182.377518 589.319824,182.626175 590.106934,182.961090 
z"/>
<path fill="#BBBABA" opacity="1.000000" stroke="none" 
	d="
M633.721558,192.015961 
	C633.508606,192.513000 632.958496,193.076584 632.159912,193.317078 
	C632.402405,192.690170 632.893372,192.386353 633.721558,192.015961 
z"/>
<path fill="#BBBABA" opacity="1.000000" stroke="none" 
	d="
M906.752869,372.661011 
	C906.774231,372.639008 906.660767,372.658813 906.690674,372.641296 
	C906.720642,372.623810 906.731506,372.683014 906.752869,372.661011 
z"/>
<path fill="#ABABAB" opacity="1.000000" stroke="none" 
	d="
M886.726013,208.955185 
	C886.924988,209.387344 886.823792,209.861282 886.317993,210.180695 
	C886.084167,209.683090 886.255005,209.340027 886.726013,208.955185 
z"/>
<path fill="#BBBABA" opacity="1.000000" stroke="none" 
	d="
M336.787994,149.790161 
	C336.953033,150.119797 336.853729,150.638306 336.319763,151.106659 
	C336.097992,150.697357 336.310791,150.338181 336.787994,149.790161 
z"/>
<path fill="#BBBABA" opacity="1.000000" stroke="none" 
	d="
M629.745239,194.953217 
	C629.930054,195.377548 629.816833,195.861572 629.299805,196.191193 
	C629.079712,195.695496 629.263489,195.354202 629.745239,194.953217 
z"/>
<path fill="#BBBABA" opacity="1.000000" stroke="none" 
	d="
M640.298889,322.037781 
	C640.049133,321.580292 640.096619,321.078369 640.621582,320.770691 
	C640.931458,321.307770 640.763794,321.650543 640.298889,322.037781 
z"/>
<path fill="#969696" opacity="1.000000" stroke="none" 
	d="
M245.062714,299.708984 
	C244.551178,299.918243 244.029861,299.820740 243.760162,299.330902 
	C244.358826,299.093109 244.705887,299.247681 245.062714,299.708984 
z"/>
<path fill="#969696" opacity="1.000000" stroke="none" 
	d="
M550.276306,343.550720 
	C550.334167,343.605316 550.426331,343.396423 550.376892,343.388367 
	C550.327454,343.380310 550.218445,343.496155 550.276306,343.550720 
z"/>
<path fill="#BBBABA" opacity="1.000000" stroke="none" 
	d="
M783.484497,342.686279 
	C783.411865,342.664001 783.466736,342.786438 783.474915,342.813812 
	C783.483093,342.841187 783.557068,342.708557 783.484497,342.686279 
z"/>
<path fill="#ABABAB" opacity="1.000000" stroke="none" 
	d="
M638.837952,323.086792 
	C638.683472,322.485718 638.912842,321.897858 639.602417,321.665527 
	C639.782288,322.380676 639.502014,322.740356 638.837952,323.086792 
z"/>
<path fill="#000000" opacity="1.000000" stroke="none" 
	d="
M622.578003,269.756958 
	C625.852905,261.859283 628.536255,253.892899 631.859192,246.202896 
	C635.510498,237.753159 639.690369,229.527878 643.789368,221.279053 
	C644.540527,219.767471 646.006104,218.610931 647.141907,217.290512 
	C647.743835,217.363678 648.345825,217.436859 648.947754,217.510040 
	C649.226562,220.908905 650.116272,224.387192 649.686340,227.693909 
	C646.574646,251.628891 636.106079,272.332733 621.228027,291.017853 
	C620.923401,291.400360 620.527893,291.731873 620.118347,292.001465 
	C619.865845,292.167694 619.506165,292.171234 617.914917,292.562561 
	C618.916748,287.550018 619.752991,283.030518 620.745056,278.545471 
	C621.231934,276.344147 622.208740,274.632782 619.999817,272.295685 
	C617.695007,269.857117 620.157715,269.488464 622.578003,269.756958 
M621.896362,271.341583 
	C621.896362,271.341583 621.984558,271.644226 621.984558,271.644226 
	C621.984558,271.644226 622.080811,271.344025 621.896362,271.341583 
z"/>
<path fill="#969696" opacity="1.000000" stroke="none" 
	d="
M550.171082,340.773499 
	C549.909058,340.171143 549.724243,339.321930 549.712402,338.250671 
	C550.006348,338.861267 550.127319,339.693970 550.171082,340.773499 
z"/>
<path fill="#000000" opacity="1.000000" stroke="none" 
	d="
M604.367065,352.083923 
	C603.931152,351.930450 603.660889,351.633392 603.390625,351.336304 
	C603.615417,351.155670 603.840149,350.975067 604.064941,350.794495 
	C604.220886,351.176422 604.376892,351.558380 604.367065,352.083923 
z"/>
<path fill="#FB575E" opacity="1.000000" stroke="none" 
	d="
M911.677124,252.436783 
	C912.022156,252.396271 912.339233,252.472351 912.891846,253.165070 
	C914.825684,254.727585 916.495972,255.790085 918.166321,256.852570 
	C918.166321,256.852570 918.029968,256.958252 918.125854,257.256714 
	C919.819702,261.717773 921.417725,265.880341 922.858398,270.377808 
	C920.899719,278.003174 919.098328,285.293732 916.970154,293.906982 
	C914.895996,288.430054 913.371765,284.405090 911.457336,279.349915 
	C909.518921,284.375549 908.042175,288.204224 906.473328,292.043365 
	C906.381226,292.053833 906.124512,292.303467 905.673218,292.454895 
	C900.487732,292.566528 895.753540,292.526672 891.017273,292.114807 
	C890.338501,285.565338 889.578857,279.395447 889.013733,273.207825 
	C888.624207,268.943207 890.804138,265.999054 894.294617,263.769745 
	C900.123718,260.046783 905.886475,256.219910 911.677124,252.436783 
z"/>
<path fill="#FB575E" opacity="1.000000" stroke="none" 
	d="
M952.119385,252.683533 
	C966.853088,255.676086 974.473877,274.517120 966.538635,288.390350 
	C965.800110,289.681549 964.863953,290.859711 963.428528,292.393921 
	C960.233093,292.644745 957.628662,292.591980 954.854736,292.259430 
	C950.632446,290.989990 949.782349,287.686981 948.850769,284.255585 
	C947.527161,279.380768 945.048401,275.774750 939.071838,276.622223 
	C938.297913,276.731995 937.101379,276.107269 936.588501,275.444946 
	C933.441895,271.381439 934.601074,263.953003 939.366150,262.044861 
	C943.784546,260.275543 945.115173,253.799896 951.099976,254.805923 
	C951.314758,254.842026 951.774048,253.423904 952.119385,252.683533 
z"/>
<path fill="#FB575E" opacity="1.000000" stroke="none" 
	d="
M960.261597,295.849609 
	C948.560120,307.640320 936.890198,319.463013 925.086060,331.150116 
	C924.297791,331.930542 922.491760,331.683105 921.044861,331.158752 
	C920.279785,327.066528 920.381714,323.306915 918.801880,320.490784 
	C916.424072,316.252075 912.925903,312.627197 909.799805,308.827087 
	C906.719849,305.083099 905.079773,300.975830 906.366699,296.000488 
	C908.406311,294.099335 910.080017,292.269684 912.051514,290.114410 
	C913.125671,293.518341 914.116028,296.656555 915.082520,300.153198 
	C915.439148,301.351593 915.819641,302.191589 916.262085,303.103760 
	C916.324097,303.175934 916.188782,303.309784 916.319519,303.629852 
	C916.789734,304.250488 917.129211,304.551086 917.476135,304.875885 
	C917.483643,304.900085 917.513306,304.859009 917.822388,304.675293 
	C918.393005,303.608643 918.654602,302.725708 918.909546,301.621399 
	C918.902954,301.400024 919.079224,300.993683 919.273438,300.705719 
	C919.551270,299.735413 919.634766,299.053101 919.668762,298.131287 
	C919.652283,297.556091 919.777466,297.259277 920.204956,296.719116 
	C920.515808,295.749908 920.616455,295.062958 920.652222,294.244690 
	C920.587341,294.113403 920.771423,293.885620 921.054504,294.030701 
	C921.918091,294.432678 922.498596,294.689606 923.042236,294.974670 
	C923.005432,295.002808 923.070923,294.938721 923.047729,295.305908 
	C923.424255,296.755463 923.824036,297.837830 924.389648,299.228485 
	C924.647522,300.697815 924.739624,301.858887 924.640137,303.351562 
	C925.023071,306.752747 925.597595,309.822266 926.356018,312.979034 
	C926.861511,313.303894 927.183044,313.541534 927.892822,313.788574 
	C931.709839,310.690552 936.385742,308.183075 938.244385,304.320129 
	C940.448486,299.739227 943.185547,297.713593 947.753601,297.066956 
	C948.865173,296.909637 949.921265,296.360748 951.457214,295.916595 
	C954.694946,295.844086 957.478271,295.846863 960.261597,295.849609 
z"/>
<path fill="#E34F56" opacity="1.000000" stroke="none" 
	d="
M952.031128,252.327820 
	C951.774048,253.423904 951.314758,254.842026 951.099976,254.805923 
	C945.115173,253.799896 943.784546,260.275543 939.366150,262.044861 
	C934.601074,263.953003 933.441895,271.381439 936.588501,275.444946 
	C937.101379,276.107269 938.297913,276.731995 939.071838,276.622223 
	C945.048401,275.774750 947.527161,279.380768 948.850769,284.255585 
	C949.782349,287.686981 950.632446,290.989990 954.395996,292.342041 
	C945.491943,293.903534 938.170776,292.949615 936.645447,282.264160 
	C936.617249,282.066833 936.130615,281.934967 935.444397,281.526276 
	C933.193909,287.739319 930.973755,293.868439 928.753601,299.997559 
	C927.615845,297.769165 927.338562,295.652191 926.986633,293.547699 
	C925.676331,285.710541 924.341431,277.877502 923.015747,270.042938 
	C921.417725,265.880341 919.819702,261.717773 918.181641,257.190918 
	C919.704895,257.948761 921.268127,259.070892 922.985535,260.303650 
	C931.243958,252.203735 940.319763,247.470856 952.031128,252.327820 
z"/>
<path fill="#E34F56" opacity="1.000000" stroke="none" 
	d="
M911.374695,252.206177 
	C905.886475,256.219910 900.123718,260.046783 894.294617,263.769745 
	C890.804138,265.999054 888.624207,268.943207 889.013733,273.207825 
	C889.578857,279.395447 890.338501,285.565338 890.593750,292.189209 
	C888.461792,292.735535 886.751282,292.835449 885.040771,292.935364 
	C883.060974,291.175293 880.408936,289.780487 879.219360,287.591064 
	C874.436462,278.787811 876.208130,266.706421 882.921021,259.109863 
	C890.131592,250.950211 900.384094,248.351944 911.374695,252.206177 
M888.528687,291.487732 
	C888.528687,291.487732 888.491394,291.497498 888.528687,291.487732 
z"/>
<path fill="#34090A" opacity="1.000000" stroke="none" 
	d="
M885.052063,293.251404 
	C886.751282,292.835449 888.461792,292.735535 890.595825,292.561218 
	C895.753540,292.526672 900.487732,292.566528 905.783691,292.527191 
	C906.564270,292.386993 906.637573,292.248596 906.565430,292.032898 
	C908.042175,288.204224 909.518921,284.375549 911.457336,279.349915 
	C913.371765,284.405090 914.895996,288.430054 916.970154,293.906982 
	C919.098328,285.293732 920.899719,278.003174 922.858459,270.377808 
	C924.341431,277.877502 925.676331,285.710541 926.986633,293.547699 
	C927.338562,295.652191 927.615845,297.769165 928.753601,299.997559 
	C930.973755,293.868439 933.193909,287.739319 935.444397,281.526276 
	C936.130615,281.934967 936.617249,282.066833 936.645447,282.264160 
	C938.170776,292.949615 945.491943,293.903534 954.565552,292.621796 
	C957.628662,292.591980 960.233093,292.644745 963.257690,292.688721 
	C962.691956,293.604462 961.706177,294.529053 960.490967,295.651611 
	C957.478271,295.846863 954.694946,295.844086 951.007446,295.816406 
	C945.132874,294.845306 938.353577,298.894867 936.029297,289.029205 
	C932.848083,298.265411 930.176331,306.022308 927.504639,313.779175 
	C927.183044,313.541534 926.861511,313.303894 926.398071,312.555847 
	C925.781372,309.036926 925.306580,306.028412 924.831787,303.019928 
	C924.739624,301.858887 924.647522,300.697815 924.444824,298.862122 
	C923.913025,297.104584 923.492004,296.021637 923.070923,294.938721 
	C923.070923,294.938721 923.005432,295.002808 923.027771,294.547333 
	C922.954285,292.131470 922.858521,290.171082 922.762756,288.210693 
	C922.279358,288.225037 921.795959,288.239380 921.312561,288.253723 
	C921.132202,290.131012 920.951782,292.008331 920.771423,293.885620 
	C920.771423,293.885620 920.587341,294.113403 920.414795,294.513855 
	C920.159851,295.610016 920.077332,296.305695 919.994812,297.001373 
	C919.777466,297.259277 919.652283,297.556091 919.447083,298.408081 
	C919.209656,299.614136 919.144470,300.303925 919.079224,300.993683 
	C919.079224,300.993683 918.902954,301.400024 918.685425,301.871246 
	C918.149658,303.181305 917.831482,304.020142 917.513306,304.859009 
	C917.513306,304.859009 917.483643,304.900085 917.334412,304.562683 
	C916.853027,303.920105 916.520935,303.614960 916.188782,303.309784 
	C916.188782,303.309784 916.324097,303.175934 916.258545,302.750885 
	C915.830811,301.482147 915.468567,300.638458 915.106323,299.794800 
	C914.116028,296.656555 913.125671,293.518341 912.051514,290.114410 
	C910.080017,292.269684 908.406311,294.099335 905.910034,295.885254 
	C898.623840,295.879639 892.160217,295.917725 885.696655,295.955811 
	C885.485535,295.159698 885.274475,294.363586 885.052063,293.251404 
z"/>
<path fill="#E34F56" opacity="1.000000" stroke="none" 
	d="
M885.827637,296.282593 
	C892.160217,295.917725 898.623840,295.879639 905.544067,295.956787 
	C905.079773,300.975830 906.719849,305.083099 909.799805,308.827087 
	C912.925903,312.627197 916.424072,316.252075 918.801880,320.490784 
	C920.381714,323.306915 920.279785,327.066528 920.891907,330.859833 
	C909.221619,319.747040 897.590088,308.178192 885.827637,296.282593 
z"/>
<path fill="#E34F56" opacity="1.000000" stroke="none" 
	d="
M918.016846,256.549866 
	C916.495972,255.790085 914.825684,254.727585 913.078003,253.329773 
	C914.622925,254.078690 916.245117,255.162933 918.016846,256.549866 
z"/>
<path fill="#000000" opacity="1.000000" stroke="none" 
	d="
M787.739319,235.949066 
	C788.645447,236.764008 789.788208,237.717682 789.852600,238.739258 
	C790.475708,248.633194 787.871704,257.656921 781.752380,265.699646 
	C782.014160,255.531097 783.540588,245.607208 787.739319,235.949066 
z"/>
<path fill="#ABABAB" opacity="1.000000" stroke="none" 
	d="
M778.730957,323.182556 
	C779.080322,323.639038 779.356750,324.339447 779.573425,325.425476 
	C779.228455,325.016235 778.943237,324.221375 778.730957,323.182556 
z"/>
<path fill="#969696" opacity="1.000000" stroke="none" 
	d="
M484.990723,287.187256 
	C485.236969,287.570648 485.334229,288.113556 485.268677,288.815308 
	C485.017822,288.431702 484.929779,287.889221 484.990723,287.187256 
z"/>
<path fill="#080607" opacity="1.000000" stroke="none" 
	d="
M487.648071,203.023392 
	C487.781891,203.294098 487.646942,203.652802 487.226898,204.038910 
	C487.087646,203.748001 487.233490,203.429703 487.648071,203.023392 
z"/>
<path fill="#969696" opacity="1.000000" stroke="none" 
	d="
M335.766602,252.471313 
	C335.592529,251.960083 335.583710,251.272217 335.777924,250.294662 
	C335.964630,250.768204 335.948242,251.531448 335.766602,252.471313 
z"/>
<path fill="#080607" opacity="1.000000" stroke="none" 
	d="
M621.988586,271.342804 
	C622.080811,271.344025 621.984558,271.644226 621.984558,271.644226 
	C621.984558,271.644226 621.896362,271.341583 621.988586,271.342804 
z"/>
<path fill="#E34F56" opacity="1.000000" stroke="none" 
	d="
M906.473328,292.043365 
	C906.637573,292.248596 906.564270,292.386993 906.234985,292.375732 
	C906.124512,292.303467 906.381226,292.053833 906.473328,292.043365 
z"/>
<path fill="#E34F56" opacity="1.000000" stroke="none" 
	d="
M927.892822,313.788574 
	C930.176331,306.022308 932.848083,298.265411 936.029297,289.029205 
	C938.353577,298.894867 945.132874,294.845306 950.553101,295.891724 
	C949.921265,296.360748 948.865173,296.909637 947.753601,297.066956 
	C943.185547,297.713593 940.448486,299.739227 938.244385,304.320129 
	C936.385742,308.183075 931.709839,310.690552 927.892822,313.788574 
z"/>
<path fill="#E34F56" opacity="1.000000" stroke="none" 
	d="
M924.640137,303.351562 
	C925.306580,306.028412 925.781372,309.036926 926.214172,312.468628 
	C925.597595,309.822266 925.023071,306.752747 924.640137,303.351562 
z"/>
<path fill="#E34F56" opacity="1.000000" stroke="none" 
	d="
M921.054504,294.030701 
	C920.951782,292.008331 921.132202,290.131012 921.312561,288.253723 
	C921.795959,288.239380 922.279358,288.225037 922.762756,288.210693 
	C922.858521,290.171082 922.954285,292.131470 923.064575,294.519196 
	C922.498596,294.689606 921.918091,294.432678 921.054504,294.030701 
z"/>
<path fill="#E34F56" opacity="1.000000" stroke="none" 
	d="
M923.047729,295.305908 
	C923.492004,296.021637 923.913025,297.104584 924.278931,298.553833 
	C923.824036,297.837830 923.424255,296.755463 923.047729,295.305908 
z"/>
<path fill="#E34F56" opacity="1.000000" stroke="none" 
	d="
M915.082520,300.153198 
	C915.468567,300.638458 915.830811,301.482147 916.196533,302.678711 
	C915.819641,302.191589 915.439148,301.351593 915.082520,300.153198 
z"/>
<path fill="#E34F56" opacity="1.000000" stroke="none" 
	d="
M917.822388,304.675293 
	C917.831482,304.020142 918.149658,303.181305 918.692017,302.092621 
	C918.654602,302.725708 918.393005,303.608643 917.822388,304.675293 
z"/>
<path fill="#E34F56" opacity="1.000000" stroke="none" 
	d="
M920.204956,296.719116 
	C920.077332,296.305695 920.159851,295.610016 920.479736,294.645142 
	C920.616455,295.062958 920.515808,295.749908 920.204956,296.719116 
z"/>
<path fill="#E34F56" opacity="1.000000" stroke="none" 
	d="
M919.273499,300.705719 
	C919.144470,300.303925 919.209656,299.614136 919.496582,298.647583 
	C919.634766,299.053101 919.551270,299.735413 919.273499,300.705719 
z"/>
<path fill="#E34F56" opacity="1.000000" stroke="none" 
	d="
M916.319519,303.629852 
	C916.520935,303.614960 916.853027,303.920105 917.326904,304.538452 
	C917.129211,304.551086 916.789734,304.250488 916.319519,303.629852 
z"/>
<path fill="#FB575E" opacity="1.000000" stroke="none" 
	d="
M888.510010,291.492615 
	C888.491394,291.497498 888.528687,291.487732 888.510010,291.492615 
z"/>
</svg>